<svg xmlns="http://www.w3.org/2000/svg" width="1828" height="1818.667" viewBox="0 0 1828 1818.667"><path style="fill:#fff;stroke-width:143.026" d="M850.637 1804.789c-310.707-23.392-588.905-208.227-735.47-485.138-46.846-88.508-80.19-201.08-93.926-309.008-2.192-17.223-5.876-62.381-5.862-101.995.02-58.34 3.265-82.07 9.096-121.385 23.826-160.643 84.972-305.256 183.661-430.22 29.696-37.602 102.063-111.679 139.063-141.201C473.98 114.684 617.641 49.948 782.61 24.215c55.791-8.703 207.586-10.96 264.22-1.601 291.668 48.198 540.884 226.497 670.89 481.544 128.358 251.812 133.334 550.532 8.21 800.98-46.327 92.729-99.8 167.91-170.019 238.368-184.156 184.784-448.326 280.627-705.273 261.283"/><path style="fill:#fef100" d="M1224 1373.409c0-.692-1.795-2.319-3.99-3.615-2.27-1.34-4.62-4.267-5.452-6.79-.804-2.437-3.06-5.421-5.01-6.63-9.34-5.79-11.354-9.502-7.478-13.785 1.907-2.107 1.212-3.145-8.828-13.185l-10.898-10.898.804-6.253c.441-3.44 1.197-9.703 1.678-13.92l.875-7.667-6.85-6.214c-5.902-5.354-6.851-6.9-6.851-11.17 0-2.778.879-5.685 2-6.615 1.164-.966 2-3.875 2-6.958 0-2.914 1.038-7.055 2.306-9.202 1.868-3.161 1.996-4.342.675-6.206-1.671-2.355-5.388-9.996-8.155-16.761-.897-2.195-3.224-4.425-5.522-5.292-4.719-1.782-4.831-2.682-1.185-9.486 2.02-3.768 2.53-6.33 1.854-9.313-.513-2.264-.946-6.606-.961-9.65-.022-4.352-.667-5.877-3.016-7.134-3.425-1.833-5.996-9.16-5.996-17.087 0-3.614-.72-5.849-2.141-6.644-1.32-.738-2.417-3.705-2.86-7.733-.767-6.978-2.262-8.91-5.999-7.747-1.99.619-2.333-.18-2.333-5.428 0-4.784-.713-6.814-3.204-9.122-2.736-2.536-3.104-3.852-2.521-9.02.555-4.929-.06-7.52-3.32-13.968-2.203-4.354-6.168-9.88-8.813-12.282-3.117-2.829-4.809-5.558-4.809-7.754 0-5.342-2.148-8.087-10.01-12.79-4.028-2.409-7.323-4.84-7.323-5.401 0-.563-.75-1.026-1.667-1.03-.917 0-2.66-1.754-3.872-3.886-3.566-6.269-8.558-8.744-17.232-8.544-10.393.239-13.086 1.303-13.985 5.527-.42 1.967-1.32 4.953-2 6.635-.956 2.357-.59 3.935 1.597 6.893 1.61 2.178 2.905 6.043 2.997 8.943.158 4.99.045 5.116-4.94 5.526-3.036.25-6.392-.425-8.287-1.666-1.751-1.148-3.955-2.09-4.898-2.094-.942 0-3.91-.618-6.593-1.363-3.657-1.016-5.232-2.366-6.285-5.386-1.383-3.968-1.465-3.998-5.336-1.997-2.162 1.118-5.12 3.545-6.574 5.393-1.642 2.088-3.986 3.36-6.194 3.36-5.236 0-15.398-2.79-15.398-4.229 0-.685-1.5-3.453-3.333-6.151s-3.334-6.643-3.334-8.767c0-3.015-1.947-5.743-8.879-12.44-7.936-7.667-8.993-9.301-9.956-15.394-.802-5.072-2.112-7.76-5.12-10.509-2.225-2.03-4.045-4.35-4.045-5.151s-2.7-4.083-6-7.29c-4.537-4.41-6-6.827-6-9.918 0-4.798-4.868-13.75-5.842-10.743-.343 1.06-1.006 5.225-1.474 9.259-.467 4.033-1.176 9.591-1.575 12.35-.515 3.56-.024 6.08 1.686 8.667 1.326 2.007 2.25 5.254 2.052 7.215-.297 2.942.09 3.447 2.213 2.892 2.476-.647 4.202 2.276 4.255 7.209.034 3.047-3.866 1.721-5.885-2l-1.99-3.667-.053 4.17c-.03 2.294.847 4.917 1.947 5.83 3.101 2.575 2.374 6.219-1.84 9.22-4.062 2.892-6.772 10.223-3.285 8.885 1.26-.484 2.125.566 2.655 3.216.433 2.164 1.878 4.28 3.21 4.703 1.823.578 2.406 2.076 2.351 6.04-.09 6.512-1.772 6.729-4.693.603-1.224-2.567-2.667-4.667-3.206-4.667s-1.398-1.9-1.908-4.223c-.758-3.45-1.152-3.823-2.153-2.035-2.103 3.758.605 9.846 7.646 17.19 7.756 8.09 9.854 13.056 9.974 23.6.072 6.415.277 6.998 1.447 4.135 1.678-4.102.4-16.525-2.244-21.825-2.795-5.602-2.451-7.508 1.354-7.508 2.505 0 3.522.889 4.19 3.666.486 2.017 2.297 6.497 4.026 9.956 4.745 9.496 4.277 16.767-1.524 23.711-2.567 3.072-4.667 6.662-4.667 7.978s-1.18 3.81-2.622 5.541l-2.623 3.148-.044-3.929-.044-3.928-4.615 4.473c-2.538 2.46-4.3 4.983-3.914 5.607 1.144 1.852-.84 6.443-2.783 6.443-.99 0-2.102-.75-2.472-1.666-.37-.917-.72.583-.778 3.333-.087 4.146.35 5 2.562 5 2.81 0 3.548 3.212 1.486 6.465-1.99 3.14-6.159 1.203-6.1-2.835.028-1.996-.302-3.63-.734-3.63-1.756 0-3.986 3.375-3.986 6.034 0 2.989-5.068 8.633-7.752 8.633-.87 0-1.581-1.8-1.581-4 0-2.334-.694-3.983-1.667-3.958-2.192.055-5.672 5.002-6.836 9.72-.511 2.068-1.624 3.529-2.473 3.246-.85-.284-3.677.214-6.284 1.106-4.25 1.454-4.817 2.22-5.486 7.42-1.055 8.21-4.039 14.466-6.9 14.466-1.316 0-3.562-1.922-4.99-4.271-2.188-3.597-3.432-4.292-7.889-4.404-5.144-.129-5.33.025-6.716 5.525-.783 3.112-1.981 6.002-2.662 6.423-1.906 1.178-3.075-4.152-2.134-9.723 1.015-6.008-1.061-12.217-4.085-12.217-1.665 0-1.992-.798-1.367-3.333 2.758-11.183 2.741-10.634.265-8.574-1.262 1.049-3.56 3.257-5.109 4.907-3.803 4.054-6.274 3.773-8.043-.915-1.27-3.366-2.001-3.81-5.217-3.166-2.87.574-3.74.244-3.74-1.419 0-1.192-.92-2.167-2.042-2.167-1.123 0-2.387-.9-2.81-2-.422-1.1-1.29-2-1.93-2-.638 0-.49 1.472.33 3.272s2.107 3.15 2.862 3 1.944 2.034 2.643 4.852c.988 3.988.841 5.553-.662 7.057-1.688 1.688-2.553 1.364-6.829-2.552-2.693-2.467-4.896-5.192-4.896-6.057 0-3.3-3.866-1.362-6.836 3.428-3.313 5.344-5.397 9.507-5.84 11.667-.99 4.817-2.625 7.333-4.766 7.333-4.248 0-7.39-9.716-3.558-11.005 2.723-.916-1.466-4.995-5.13-4.995-2.74 0-3.04-.481-2.372-3.82.662-3.31.306-3.906-2.667-4.475-2.28-.436-4.181.174-5.67 1.82-1.954 2.159-1.976 2.475-.177 2.475 2.42 0 3.923 3.157 2.844 5.97-.483 1.258.493 2.538 2.708 3.547 2.521 1.148 3.464 2.587 3.464 5.285 0 2.04.6 4.078 1.334 4.532 2.074 1.282 1.587 8.652-.628 9.502-1.078.414-3.582-.522-5.564-2.081-3.273-2.575-3.585-3.594-3.413-11.128l.19-8.293-2.31 5.093c-2.567 5.66-4.27 5.268-4.284-.982-.005-2.261-1.201-5.911-2.658-8.111l-2.65-4-.008 3.71c-.005 2.04.887 5.853 1.982 8.475 1.805 4.319 1.778 5.128-.287 8.624-2.533 4.287-5.773 4.848-11.312 1.959-1.984-1.036-4.838-1.561-6.34-1.168-1.503.393-3.576.015-4.606-.84-1.518-1.26-2.034-.82-2.725 2.326-1.176 5.357-9.5 12.635-11.236 9.825-.613-.99-2.67-1.028-6.706-.121-5.096 1.145-6.132.976-8.3-1.352-1.364-1.463-2.479-3.885-2.479-5.383 0-1.497-.681-2.722-1.514-2.722-1.026 0-1.252-1.918-.7-5.942.458-3.348.25-6.29-.48-6.741-.71-.44-1.225-2.716-1.143-5.058.083-2.343-.838-7.705-2.045-11.916-1.983-6.913-1.998-8.04-.157-11.6 1.121-2.17 2.04-5.445 2.04-7.28 0-3.734-2.57-10.13-4.07-10.13-.537 0-1.34-1.453-1.786-3.23s-2.23-4.927-3.964-7c-2.96-3.538-3.14-4.741-2.934-19.58.218-15.679-.167-17.59-5.051-25.04-2.03-3.095-2.071-3.75-.343-5.478 1.68-1.682 1.707-2.705.181-7.142-1.231-3.583-1.373-5.94-.46-7.647 1.01-1.888.668-3.163-1.46-5.428-3.687-3.925-3.564-9.307.284-12.358 2.574-2.04 2.911-3.171 2.108-7.06-.527-2.548-1.622-4.853-2.434-5.124s-2.708-2.905-4.212-5.855c-1.505-2.949-3.896-5.665-5.313-6.036-3.373-.882-4.66-6.348-2.742-11.65.84-2.326 1.528-5.82 1.528-7.765 0-3.62 9.222-14.255 13.924-16.06 3.788-1.453 1.723-5.342-4.606-8.673-7.319-3.853-22.65-5.305-22.65-2.145 0 2.513.048 2.523-7.154-1.502-12.6-7.043-14.861-14.413-6.117-19.934 2.969-1.873 5.748-4.32 6.177-5.438s3.951-3.821 7.828-6.009 7.726-4.794 8.554-5.792c2.378-2.866-3.393-6.054-10.96-6.054-4.47 0-6.645-.606-7.18-2-.422-1.1-2.08-2-3.682-2-2.139 0-3.255-1.155-4.191-4.333-.968-3.29-2.127-4.432-4.807-4.742-2.158-.25-3.794-1.417-4.208-3-.487-1.862-1.84-2.591-4.803-2.591-3.85 0-9.458-3.831-9.458-6.46 0-.62 1.107-2.129 2.46-3.353s3.24-4.59 4.193-7.479c1.512-4.582 1.448-5.69-.506-8.671-1.986-3.032-2.008-3.507-.193-4.204 2.368-.909 2.752-7.261.57-9.443-2.382-2.382 3.65-4.81 9.587-3.86 4.11.657 6.063.153 10.156-2.624 6.3-4.273 7.601-6.47 5.077-8.564-1.417-1.176-1.596-2.293-.65-4.061.719-1.342 1.306-4.91 1.306-7.928 0-5.013-.405-5.659-4.667-7.44-5.941-2.482-6.11-5.605-.333-6.162l4.333-.418-.286-9.953c-.304-10.563-1.884-14.064-8.61-19.086-3.491-2.607-12.138-3.614-15.87-1.849-1.41.668-3.304-.213-5.774-2.683-2.829-2.828-4.724-3.586-8.215-3.286-8.31.716-18.014-3.172-25.739-10.314-3.938-3.641-8.548-6.969-10.245-7.395s-4.413-2.64-6.037-4.921-4.926-4.972-7.336-5.98c-3.505-1.464-4.466-2.701-4.802-6.182-.31-3.213-1.14-4.454-3.179-4.746-2.216-.316-2.65-1.145-2.201-4.201.385-2.626-.31-4.675-2.24-6.605-5.19-5.19-2.688-13.722 5.913-20.166 3.259-2.442 6.286-5.575 6.726-6.962s2.619-3.628 4.841-4.98l4.042-2.457-4.16-2.151c-2.289-1.183-4.16-2.395-4.16-2.693s1.806-1.829 4.015-3.402c5.225-3.72 11.984-2.67 11.984 1.863 0 1.635.82 4.093 1.821 5.463 1.622 2.218 2.28 2.301 6 .76 3.546-1.469 4.18-2.43 4.18-6.35v-4.62l7.64.448 7.641.448.997-8c.548-4.4 2-10.654 3.224-13.898l2.228-5.898-3.532-3.038c-3.94-3.388-4.465-6.065-1.65-8.4 1.436-1.194 2.108-1.193 2.846 0 .637 1.03 3.176 1.3 7.458.794 5.445-.645 6.906-.325 9.057 1.983 2.383 2.558 3.03 2.633 9.163 1.061 6.022-1.543 6.993-1.452 11.097 1.042 7.031 4.273 11.747 4.72 20.62 1.96 5.781-1.8 8.802-2.13 10.905-1.191 3.713 1.657 6.371-.413 7.449-5.8.525-2.625 1.95-4.43 4.16-5.27 2.517-.957 3.363-2.242 3.363-5.105 0-6.113-3.565-8.324-11.84-7.344-5.622.666-6.961.459-6.67-1.031.643-3.278-1.543-7.702-4.225-8.553-3.157-1.002-3.23-2.223-.452-7.595 2.038-3.941 2.009-4.258-.576-6.268-1.498-1.163-2.914-3.91-3.147-6.104-.488-4.594-4.042-5.996-7.523-2.97-2.204 1.917-6.1 3.13-14.554 4.531-3.198.53-4.533.16-5.142-1.428-.453-1.18-1.417-2.145-2.142-2.145s-4.561-.942-8.524-2.094c-6.458-1.878-7.205-2.474-7.205-5.753 0-2.869-1.008-4.14-4.667-5.884-3.773-1.8-4.666-2.977-4.666-6.152 0-4.906-2.776-7.766-8.597-8.858-3.214-.603-4.732-1.726-5.28-3.905-.429-1.711-2.122-3.399-3.843-3.83-1.743-.438-4.384-3.1-6.096-6.148-2.36-4.2-3.807-5.376-6.612-5.376-1.974 0-5.535-.558-7.913-1.24-3.358-.963-4.787-.775-6.403.841-1.885 1.885-2.435 1.74-5.857-1.537-2.974-2.85-3.583-4.339-2.87-7.01.5-1.864.517-6.764.04-10.888-1.072-9.277.11-11.694 7.21-14.738 3.075-1.318 6.344-3.303 7.263-4.41 2.1-2.53.85-5.994-2.555-7.074-3.622-1.15-2.155-5.315 4.144-11.755 4.113-4.207 6.216-5.272 11.533-5.841 8.068-.864 9.337-1.847 10.417-8.062 2.122-12.215 4.87-14.294 21.405-16.19 7.965-.913 9.244-3.653 4.105-8.792-2.336-2.336-3.425-4.868-3.425-7.963 0-3.399-1.088-5.56-4.333-8.6-4.88-4.573-7.65-5.02-12.29-1.98-2.515 1.648-3.8 1.773-6.018.586-3.404-1.821-3.182-2.71 4.905-19.68 6.216-13.043 9.736-15.874 9.736-7.83 0 3.921 1.298 5.665 10.048 13.496 5.527 4.946 11.855 11.62 14.064 14.83 2.34 3.402 5.063 5.837 6.524 5.837 1.899 0 3.036 1.816 4.68 7.468 1.201 4.134 3.675 8.863 5.541 10.592 2.23 2.066 3.104 3.964 2.582 5.608-.998 3.145 6.127 10.374 9.1 9.232 1.292-.495 3.054.656 4.838 3.16 4.378 6.15 11.923 4.852 10.817-1.86-.224-1.356.841-3.34 2.367-4.409 3.465-2.427 3.569-5.358.226-6.42-4.382-1.39-6.02-4.327-3.705-6.643 1.108-1.107 2.265-2.767 2.572-3.688.437-1.311 1.304-1.335 3.993-.11 3.165 1.442 3.562 1.257 5.056-2.349 1.985-4.793 4.53-4.992 7.42-.58 1.618 2.468 3.354 3.333 6.697 3.333 3.753 0 4.514.491 4.514 2.914 0 1.602 1.301 4.3 2.892 5.993 2.597 2.764 2.735 3.59 1.345 8.086-1.383 4.473-1.23 5.433 1.426 9.007 2.028 2.728 2.939 5.763 2.864 9.547-.094 4.732.398 5.778 3.348 7.114 5.716 2.588 14.955 9.617 21.475 16.339 6.41 6.607 9.558 7.578 13.905 4.29 3.832-2.898 5.565-2.413 7.425 2.077 1.683 4.063 2.257 4.169 8.968 1.648.906-.341 2.241.941 2.967 2.85 1.676 4.409 3.61 4.306 9.216-.488 4.222-3.61 4.406-4.11 3-8.144-1.9-5.452-1.918-10.947-.041-12.823 1.053-1.054 1.053-2.21 0-4.18-2.426-4.531-1.699-5.564 3.918-5.564 3.504 0 5.638.684 6.129 1.964.414 1.08 2.796 2.347 5.291 2.815 3.281.616 4.538 1.557 4.538 3.398 0 1.508 1.496 3.19 3.667 4.122 2.017.866 3.865 1.701 4.106 1.856.242.154-.958 2.743-2.666 5.753-2.523 4.443-2.766 5.687-1.292 6.619.997.63 2.947.85 4.333.488 1.385-.363 2.532-.139 2.549.497.016.635 1.066 2.465 2.333 4.067 2.008 2.538 3.027 2.776 7.934 1.852 6.764-1.273 7.693-.63 5.01 3.463-1.893 2.89-1.852 3.106.584 3.106 1.44 0 2.99.6 3.442 1.334.454.733-.096 1.333-1.22 1.333-1.125 0-2.939 1.73-4.032 3.843-1.458 2.819-3.331 4.094-7.034 4.786-7.496 1.4-8.398 2.693-8.284 11.87.115 9.285 1.82 15.904 5.422 21.04 3.402 4.851 3.111 11.735-1.397 33.128-3.279 15.556-3.556 18.465-2.046 21.43 3.082 6.046 5.541 7.317 10.365 5.353 7.991-3.253 9.475-3.108 16.475 1.602 3.75 2.524 11.528 6.537 17.285 8.92 5.756 2.381 11.098 4.837 11.87 5.457.77.62 5.114 1.334 9.652 1.588 5.558.31 9.45 1.33 11.93 3.126 2.025 1.466 6.148 3.93 9.162 5.477l5.482 2.81 5.575-3.324c8.585-5.12 12.94-5.935 22.39-4.194 6.698 1.234 9.049 1.194 11.653-.2 3.774-2.02 9.802-1.322 21.273 2.462 7.637 2.52 8.112 2.523 21.976.152 18.253-3.123 40.592-4.483 44.14-2.69 1.483.75 3.889 1.964 5.345 2.697 1.457.734 5.876 1.334 9.82 1.334 5.267 0 8.118.743 10.732 2.8l3.56 2.8 10.377-2.8c11.354-3.064 34.315-3.9 38.95-1.42 1.778.951 3.38.951 5.159 0 1.667-.893 3.741-.939 5.866-.131 2.14.814 4.954.738 8.068-.217 8.33-2.557 36.294 3.564 42.4 9.282 2.708 2.535 4.42 3.14 7.029 2.486 2.447-.614 3.676-.275 4.23 1.167.428 1.118 1.782 2.033 3.007 2.033s3.504.894 5.064 1.987 5.77 2.616 9.356 3.385c6.298 1.35 6.505 1.543 6.098 5.68-.365 3.708.296 4.77 4.94 7.935 6.02 4.102 7.25 9.242 2.783 11.632-4.056 2.171-17.05 1.685-20.809-.778-2.742-1.797-3.947-1.888-7.19-.545-2.143.888-4.965 2.796-6.272 4.24-1.98 2.187-2.066 2.819-.516 3.777 1.49.92 1.533 1.546.214 3.135-1.317 1.587-1.247 2.944.348 6.76 1.834 4.39 1.784 5.252-.62 10.688-1.44 3.253-3.339 11.956-4.222 19.342s-2.186 13.428-2.894 13.428-2.684-1.312-4.391-2.915c-2.396-2.25-3.465-2.555-4.687-1.333s-1.218 2.593.018 6.01c.88 2.435 1.6 6.366 1.6 8.734 0 3.654-.7 4.6-4.623 6.24-2.543 1.062-8.796 1.931-13.894 1.931-9.216 0-9.276.023-10.149 4-.483 2.2-1.671 4-2.64 4-2.59 0-5.104 12.165-4.069 19.695.734 5.334.452 6.791-1.69 8.73-2.464 2.23-2.663 2.188-4.753-1.002-1.2-1.831-2.181-4.59-2.181-6.13 0-6.045-2.12-7.691-8.962-6.96-8.318.89-9.958 2.295-8.95 7.666.626 3.341.286 4.494-1.531 5.192-2.98 1.143-4.008.052-6.153-6.524-1.256-3.849-2.575-5.452-4.739-5.76-2.5-.355-3 .2-3.007 3.334 0 2.067-.8 5.275-1.767 7.129s-1.499 5.594-1.182 8.312c.51 4.372.166 5.098-2.986 6.297-5.809 2.208-9.99 1.594-19.735-2.898-7.204-3.32-9.71-3.931-11.44-2.79-1.218.803-1.989 2.267-1.712 3.252.549 1.954.537 2.13-.656 9.499-.683 4.226-1.233 4.91-3.395 4.223-1.42-.45-3.427-.116-4.461.743-1.095.908-3.501 1.206-5.753.71-3.486-.765-4.107-.354-6.23 4.12-1.863 3.927-2.201 7.028-1.613 14.804l.744 9.836-6.57 4.72c-3.613 2.595-6.56 5.113-6.549 5.594.04 1.662 1.988 3.739 4.313 4.597 3.312 1.222 2.89 3.415-1 5.187-4.695 2.14-4.363 6.916.743 10.69 3.3 2.441 4.005 3.837 3.703 7.338-.286 3.313.595 5.344 3.771 8.693 2.912 3.07 4.41 6.236 5.036 10.645.658 4.624 1.815 6.947 4.396 8.827 3.162 2.303 3.376 2.99 2.202 7.058-1.013 3.507-.62 7.317 1.771 17.173 1.69 6.967 2.746 14.194 2.346 16.06-1.104 5.157 2.602 12.633 7.207 14.54 3.053 1.266 3.907 2.421 3.726 5.042-.256 3.72 1.413 4.96 4.258 3.16 1.529-.968 1.459-2.262-.43-7.949-1.241-3.736-1.937-7.31-1.546-7.942.39-.633-.563-3.496-2.12-6.364-3.36-6.191-4.298-18.415-1.585-20.667 1.39-1.153 2.14-.714 3.361 1.966.865 1.897 2.906 4.324 4.536 5.392s3.346 3.461 3.812 5.318 2.38 5.633 4.252 8.393c2.657 3.915 3.222 5.997 2.57 9.47-.458 2.447-.256 5.154.45 6.015.708.862 1.493 3.06 1.747 4.887.398 2.87 1.367 3.457 7.128 4.318 11.645 1.74 20.411-1.542 27.275-10.213 3.679-4.647 4.051-5.894 3.285-11.002-.631-4.209-.284-6.647 1.288-9.046 2.831-4.321 2.714-6.909-.497-10.991-1.457-1.852-2.254-4.005-1.773-4.784.482-.78.747-4.257.588-7.727-.158-3.47.34-6.698 1.106-7.172.767-.474 1.394-1.947 1.394-3.274 0-1.754 1.365-2.634 5-3.226 7.855-1.279 17.52-4.19 19.077-5.747 2.054-2.055 1.617-24.616-.727-37.457-.643-3.523-.539-5.667.276-5.667 2.678 0 9.708 2.969 9.708 4.1 0 1.404 4.902 4.63 8.793 5.786 2.257.67 3.688-.447 7.443-5.81 4.352-6.217 4.823-6.518 7.387-4.723 1.506 1.055 3.155 3.58 3.665 5.609 1.678 6.686 6.045 9.016 6.045 3.226 0-4.63 3.232-9.596 6-9.218 2.156.294 2.612 1.258 2.38 5.03-.511 8.292-.45 11.203.396 18.667.457 4.033 1.343 7.963 1.97 8.733.625.77 1.56 4.043 2.076 7.275.545 3.406 2.251 7.186 4.059 8.994 1.929 1.93 3.119 4.697 3.119 7.255 0 2.71 1.537 6.02 4.46 9.606 5.892 7.229 7.703 10.829 6.726 13.374-1.068 2.783-2.737 2.643-6.822-.57-5.55-4.365-8.364-2.9-8.364 4.354 0 4.162 5.285 14.312 7.452 14.312 1.172 0 1.881 1.409 1.881 3.734 0 2.053.708 4.44 1.573 5.306 1.209 1.209 1.148 2.369-.264 5.007-1.556 2.906-1.558 4.088-.018 7.694 1 2.342 1.936 6.545 2.08 9.338.178 3.477 1.159 5.708 3.111 7.075 2.282 1.599 2.852 3.362 2.852 8.825 0 6.071.48 7.228 4.333 10.445 3.945 3.294 4.345 4.319 4.461 11.43.07 4.297.855 9.594 1.744 11.77s1.45 5.893 1.245 8.261.061 4.738.59 5.266.96 2.66.96 4.738.512 3.778 1.138 3.778.853 2.96.505 6.58c-.476 4.953.073 8.036 2.224 12.478 2.247 4.642 2.779 7.897 2.494 15.275-.285 7.412.128 9.918 1.973 11.96 3.091 3.424 2.96 8.727-.29 11.668-2.011 1.82-2.315 2.953-1.3 4.85.728 1.36 1.277 4.735 1.22 7.498-.153 7.265 1.976 18.83 3.801 20.656 2.182 2.182 1.958 5.719-.49 7.75-1.429 1.186-1.799 2.898-1.208 5.587.6 2.735.165 4.636-1.479 6.452-2.043 2.258-2.228 4.456-1.508 17.906.452 8.432 1.44 16.486 2.194 17.896.755 1.41 1.977 6.831 2.717 12.047s2.845 13.046 4.677 17.4c1.833 4.354 3.332 9.456 3.332 11.337 0 4.106-3.597 9.993-6.106 9.993-2.287 0-4.56-4.194-4.56-8.411 0-1.859-2-5.437-4.665-8.346-4.177-4.56-4.838-4.863-6.333-2.896-1.436 1.89-2.369 1.973-6.67.599-4.132-1.32-5-2.217-5-5.163 0-5.505-1.344-7.783-4.594-7.783-1.882 0-3.536-1.226-4.496-3.333-2.061-4.524-3.825-4.192-7.086 1.333-1.514 2.567-3.82 4.667-5.126 4.667-1.304 0-3.223 1.282-4.263 2.848-1.666 2.509-2.227 2.637-4.72 1.08-3.753-2.343-6.54-.095-8.388 6.764-1.377 5.115-.626 8.535 3.004 13.671 1.387 1.964 1.178 3.223-1.24 7.442-4.147 7.235-2.5 13.604 5.503 21.272 5.695 5.458 6.074 6.255 6.074 12.805 0 3.948 1.449 11.245 3.333 16.785 3.4 9.997 4.4 20 2 20-.733 0-1.333-.566-1.333-1.258zm-452-188.076c0-.733-.635-1.333-1.412-1.333s-1.041.6-.588 1.333c.453.734 1.089 1.334 1.412 1.334s.588-.6.588-1.334m-6.924-3.368c-.41-.41-1.156.33-1.657 1.644-.724 1.9-.57 2.054.746.747.912-.905 1.321-1.98.91-2.391m13.59-11.709c0-2.01.714-2.43 3.294-1.937 1.81.346 3.023.193 2.694-.34-1.13-1.827-9.012-2.675-10.832-1.165-1.657 1.375-1.368 6.332.566 9.721.963 1.689 4.279-3.177 4.279-6.279m182.245-49.173c-.426-1.063-.742-.747-.806.806-.058 1.406.257 2.193.7 1.75.444-.443.491-1.593.106-2.556m179.63 135.558c-1.036-4.13 1.626-10.946 4.975-12.739 2.892-1.548 3.16-4.168.817-7.994-1.405-2.295-1.303-2.93.65-4.039 3.003-1.706 5.32-6.052 6.269-11.76.953-5.73 3.581-6.776 4.644-1.846.792 3.67-.046 7.793-3.198 15.737-.873 2.2-1.739 7-1.924 10.667-.45 8.94-3.834 15.333-8.116 15.333-2.387 0-3.502-.91-4.117-3.36m-125.124-80.115c-.48-1.91-.479-6.092 0-9.291.714-4.756 1.943-6.694 6.73-10.618 4.571-3.745 5.697-5.442 5.124-7.724-.404-1.608.112-5.017 1.147-7.575 1.438-3.559 1.621-7.156.778-15.318-.606-5.867-.802-11.654-.437-12.86s-.325-4.667-1.535-7.691c-2.146-5.364-2.123-5.612.955-10.132 4.163-6.113 8.16-6.13 12.142-.055l3.012 4.597 3.45-3.305c1.952-1.87 4.317-2.971 5.448-2.537 2.85 1.094 6.436 9.266 6.436 14.67 0 3.861-.566 4.737-3.541 5.484-2.608.654-4.013.243-5.334-1.563-.985-1.348-1.792-1.83-1.792-1.07s1.197 2.465 2.66 3.788c3.408 3.086 5.323 10.055 5.333 19.413.01 6.039-.77 8.622-4.206 14-2.318 3.626-4.588 8.372-5.045 10.544-.555 2.637-1.84 4.189-3.865 4.667-1.669.394-2.9 1.316-2.737 2.05.164.733-3.218 3.227-7.515 5.542s-8.512 5.166-9.366 6.334c-2.481 3.393-6.84 2.642-7.842-1.35m-50.585-6.576c-.412-1.072-1.667-1.95-2.79-1.95-3.682 0-2.139-2.46 2.625-4.182 4.83-1.746 6.23-3.818 2.579-3.818-1.149 0-3.249.621-4.667 1.38-1.835.982-2.579.95-2.579-.11 0-.821-.75-1.236-1.667-.923-1.892.646-6.333-3.88-6.333-6.456 0-.935 1.033-2.734 2.296-3.996 2.171-2.172 2.411-2.033 4.448 2.584 2.062 4.675 2.246 4.777 4.371 2.429 2.874-3.176 2.8-4.118-.615-7.752l-2.834-3.017 4.123-5.206c5.678-7.169 10.698-17.538 12.085-24.964 1.004-5.373.733-6.975-1.987-11.761-1.731-3.048-4.166-9.858-5.41-15.134-1.993-8.446-2.544-9.442-4.616-8.333-3.294 1.763-5.194 1.568-5.194-.534 0-.987-1.2-2.88-2.667-4.207-3.128-2.831-3.371-6.956-.624-10.588 1.076-1.424 1.957-5.054 1.957-8.067 0-6.07 1.809-8.7 5.934-8.634 4.196.068 7.914 3.928 11.655 12.1 2.187 4.776 5.64 9.306 9.642 12.648 4.494 3.754 6.05 5.919 5.571 7.755-.447 1.716 1.22 4.643 5.11 8.97 4.946 5.5 5.9 7.524 6.66 14.118.488 4.234 1.56 9.415 2.381 11.513 1.205 3.077 1.064 4.625-.728 8-1.222 2.302-2.722 7.926-3.333 12.5-.996 7.448-.857 8.394 1.332 9.09 1.344.426 2.443 1.274 2.443 1.885 0 .61 2.04-.93 4.533-3.423 5.857-5.857 7.467-5.723 7.467.62 0 8.232-8.443 17.018-12.845 13.365-1.104-.916-1.741-2.682-1.417-3.923.453-1.732-.069-2.098-2.24-1.572-4.34 1.051-7.107 4.024-8.027 8.624-.875 4.374-4.26 9.02-6.573 9.02-.745 0-2.365.913-3.6 2.031-2.767 2.504-6.631 1.236-6.631-2.175 0-1.388-.6-2.524-1.334-2.524-.733 0-1.333.531-1.333 1.18 0 .65-1.444 2.127-3.21 3.284-2.782 1.822-3.31 1.843-3.958.153m46.84-41.789c-.798-2.993 2.625-14.308 3.933-13 .332.332.834 2.007 1.115 3.721.28 1.715.904 4.768 1.384 6.785.982 4.122-1.586 5.232-3.085 1.333-.753-1.96-1.025-1.8-1.7 1l-.803 3.333zm81.995-4.314c-2.384-1.527-4.334-3.714-4.334-4.861s-1.727-4.838-3.838-8.203c-3.125-4.979-3.983-8.138-4.615-16.988-.75-10.504-.643-11.055 3.18-16.333 6.585-9.09 13.153-6.222 15.884 6.936.834 4.017 2.688 8.364 4.12 9.66s2.605 3.012 2.608 3.815c0 .803 1.8 4.16 3.995 7.46 6.374 9.59 5.233 14.024-4.934 19.173-5.481 2.775-6.817 2.703-12.066-.66m-82.83-23.713c-2.314-1.466-.413-7.944 2.947-10.039 2.94-1.832 4.834.858 4.862 6.905.017 3.617-.475 4.33-2.98 4.313-1.65-.011-3.823-.542-4.829-1.18m59.834-32.789c-1.652-4.344-.339-7.79 2.501-6.567 1.189.512 3.596.996 5.35 1.076s3.853 1.231 4.666 2.558c1.184 1.93.963 2.794-1.11 4.333-4.253 3.158-9.94 2.46-11.407-1.4m-99.429-22.63c-2.334-3.562-1.721-12.715.851-12.715 3.042 0 5.382 13.598 2.632 15.297-.7.434-2.268-.728-3.483-2.582m-15.86-17.995c-1.793-1.98-2.147-3.777-1.464-7.419 1.5-7.991 5.587-3.617 5.95 6.366.156 4.326-1.23 4.652-4.486 1.053"/><path style="fill:#ec1b23" d="M891.333 1571.1c-226.126-7.715-431.088-127.918-548.652-321.767-12.93-21.32-38.501-72.768-47.383-95.333-24.756-62.895-39.274-125.988-44.715-194.33-2.115-26.557-.948-99.635 1.974-123.67 16.299-134.048 65.923-249.346 151.529-352.062 16.514-19.815 55.066-58.777 74.58-75.375C588.824 314.87 720.7 260.382 863.934 249.378c23.06-1.772 77.074-1.772 100.134 0 87.544 6.725 166.359 28.193 244.6 66.624 42.757 21.001 70.789 38.236 108.666 66.809 187.971 141.796 286.268 374.026 257.292 607.861-16.4 132.355-71.054 253.975-159.38 354.661-16.606 18.931-53.815 55.254-72.578 70.851-102.119 84.886-222.293 136.27-353.334 151.078-19.62 2.217-66.553 4.85-79.333 4.451-4.4-.137-12.8-.413-18.667-.614m335.334-201.533c0-2.805-1.5-9.51-3.334-14.9-1.884-5.54-3.333-12.837-3.333-16.785 0-6.55-.378-7.347-6.074-12.805-8.002-7.668-9.65-14.037-5.503-21.272 2.418-4.22 2.628-5.478 1.24-7.442-3.63-5.137-4.38-8.556-3.003-13.67 1.847-6.86 4.635-9.108 8.387-6.765 2.493 1.557 3.055 1.429 4.72-1.08 1.04-1.567 2.96-2.848 4.264-2.848s3.611-2.1 5.126-4.667c3.26-5.526 5.024-5.857 7.086-1.333.96 2.107 2.614 3.333 4.495 3.333 3.25 0 4.595 2.278 4.595 7.783 0 2.946.868 3.842 5 5.163 4.3 1.374 5.234 1.29 6.67-.599 1.494-1.967 2.155-1.665 6.333 2.896 2.664 2.91 4.664 6.487 4.664 8.346 0 4.217 2.274 8.411 4.56 8.411 2.51 0 6.107-5.887 6.107-9.993 0-1.881-1.5-6.983-3.332-11.337-1.833-4.354-3.938-12.184-4.677-17.4-.74-5.216-1.963-10.637-2.718-12.047s-1.741-9.464-2.193-17.896c-.721-13.45-.536-15.648 1.508-17.907 1.643-1.815 2.079-3.716 1.478-6.45-.59-2.69-.22-4.402 1.208-5.587 2.448-2.032 2.672-5.57.49-7.75-1.825-1.826-3.954-13.392-3.802-20.657.058-2.763-.49-6.138-1.219-7.499-1.015-1.896-.71-3.03 1.3-4.849 3.25-2.941 3.382-8.245.29-11.668-1.844-2.042-2.258-4.548-1.972-11.96.284-7.378-.248-10.633-2.495-15.275-2.15-4.442-2.7-7.525-2.223-12.479.347-3.618.12-6.579-.506-6.579-.625 0-1.137-1.7-1.137-3.778s-.433-4.21-.96-4.738c-.529-.528-.794-2.898-.59-5.266s-.357-6.085-1.246-8.262c-.888-2.176-1.673-7.472-1.743-11.768-.117-7.112-.517-8.137-4.461-11.43-3.854-3.218-4.334-4.375-4.334-10.446 0-5.463-.57-7.226-2.851-8.825-1.953-1.367-2.934-3.598-3.112-7.075-.143-2.793-1.08-6.996-2.08-9.339-1.54-3.605-1.537-4.787.018-7.693 1.412-2.638 1.473-3.798.265-5.007-.865-.865-1.573-3.253-1.573-5.306 0-2.325-.71-3.734-1.881-3.734-2.168 0-7.453-10.15-7.453-14.312 0-7.254 2.815-8.72 8.364-4.354 4.086 3.213 5.754 3.353 6.822.57.977-2.545-.834-6.145-6.726-13.374-2.923-3.586-4.46-6.896-4.46-9.606 0-2.558-1.19-5.326-3.119-7.255-1.808-1.808-3.513-5.588-4.058-8.994-.517-3.232-1.452-6.505-2.077-7.275-.626-.77-1.512-4.7-1.97-8.733-.845-7.464-.907-10.375-.396-18.667.232-3.772-.224-4.736-2.38-5.03-2.767-.378-6 4.587-6 9.217 0 5.791-4.367 3.461-6.045-3.225-.51-2.03-2.158-4.554-3.665-5.609-2.563-1.795-3.035-1.494-7.387 4.723-3.754 5.363-5.186 6.48-7.442 5.81-3.892-1.156-8.794-4.382-8.794-5.786 0-1.131-7.03-4.1-9.708-4.1-.814 0-.918 2.144-.275 5.667 2.343 12.84 2.78 35.402.726 37.457-1.557 1.557-11.221 4.468-19.076 5.747-3.636.592-5 1.472-5 3.226 0 1.327-.628 2.8-1.394 3.274-.767.474-1.265 3.701-1.106 7.172s-.106 6.947-.588 7.727.316 2.932 1.773 4.784c3.21 4.082 3.328 6.67.496 10.99-1.571 2.4-1.919 4.838-1.287 9.047.766 5.108.393 6.355-3.285 11.002-6.865 8.67-15.631 11.953-27.276 10.213-5.76-.86-6.73-1.447-7.128-4.318-.253-1.826-1.039-4.025-1.746-4.887-.706-.86-.909-3.568-.45-6.016.652-3.472.086-5.554-2.57-9.469-1.873-2.76-3.787-6.537-4.253-8.393s-2.181-4.25-3.811-5.318-3.672-3.495-4.536-5.392c-1.221-2.68-1.972-3.12-3.361-1.966-2.713 2.252-1.776 14.476 1.585 20.667 1.556 2.868 2.51 5.731 2.12 6.363-.391.633.304 4.207 1.545 7.943 1.889 5.687 1.96 6.981.43 7.948-2.844 1.8-4.514.562-4.257-3.16.18-2.62-.674-3.775-3.727-5.04-4.605-1.908-8.31-9.384-7.207-14.54.4-1.867-.656-9.094-2.346-16.061-2.39-9.856-2.784-13.666-1.77-17.173 1.174-4.067.959-4.755-2.203-7.058-2.58-1.88-3.737-4.203-4.395-8.827-.627-4.41-2.125-7.575-5.037-10.645-3.175-3.349-4.056-5.38-3.77-8.693.301-3.501-.403-4.897-3.704-7.337-5.106-3.775-5.437-8.552-.742-10.691 3.889-1.772 4.312-3.965 1-5.187-2.326-.858-4.274-2.935-4.313-4.597-.011-.481 2.936-2.999 6.549-5.595l6.569-4.72-.744-9.835c-.588-7.776-.25-10.877 1.614-14.805 2.123-4.473 2.744-4.884 6.23-4.118 2.251.495 4.658.197 5.752-.711 1.035-.859 3.042-1.193 4.461-.743 2.163.686 2.712.003 3.396-4.223 1.192-7.369 1.204-7.545.655-9.5-.276-.984.494-2.448 1.712-3.251 1.73-1.141 4.237-.53 11.44 2.79 9.745 4.492 13.927 5.106 19.735 2.898 3.153-1.2 3.497-1.925 2.987-6.297-.317-2.718.214-6.459 1.182-8.312.967-1.854 1.762-5.062 1.767-7.13.01-3.133.507-3.688 3.007-3.333 2.164.308 3.483 1.911 4.738 5.76 2.145 6.576 3.174 7.667 6.153 6.524 1.818-.698 2.158-1.85 1.53-5.192-1.007-5.371.633-6.775 8.952-7.665 6.841-.732 8.961.914 8.961 6.959 0 1.54.982 4.299 2.181 6.13 2.09 3.19 2.289 3.232 4.753 1.002 2.142-1.939 2.424-3.396 1.69-8.73-1.035-7.53 1.479-19.695 4.07-19.695.968 0 2.156-1.8 2.64-4 .873-3.977.932-4 10.148-4 5.099 0 11.351-.87 13.894-1.932 3.923-1.64 4.624-2.585 4.624-6.239 0-2.368-.72-6.299-1.6-8.733-1.236-3.418-1.24-4.789-.019-6.01 1.222-1.223 2.291-.919 4.687 1.332 1.707 1.603 3.683 2.915 4.392 2.915.708 0 2.01-6.042 2.893-13.428.884-7.386 2.783-16.09 4.222-19.342 2.405-5.436 2.455-6.297.62-10.688-1.594-3.816-1.664-5.173-.348-6.76 1.32-1.59 1.277-2.214-.213-3.135-1.55-.958-1.464-1.59.515-3.777 1.307-1.444 4.13-3.352 6.273-4.24 3.242-1.343 4.448-1.252 7.19.545 3.76 2.463 16.752 2.95 20.809.778 4.466-2.39 3.236-7.53-2.783-11.632-4.644-3.165-5.306-4.227-4.94-7.936.407-4.136.2-4.329-6.099-5.68-3.585-.768-7.796-2.292-9.356-3.384s-3.839-1.987-5.064-1.987-2.578-.915-3.007-2.033c-.554-1.442-1.783-1.781-4.23-1.167-2.609.655-4.321.05-7.029-2.486-6.106-5.718-34.069-11.84-42.4-9.282-3.113.955-5.927 1.03-8.067.217-2.125-.808-4.2-.762-5.867.13-1.778.952-3.38.952-5.158 0-4.636-2.48-27.596-1.643-38.95 1.42l-10.378 2.801-3.56-2.8c-2.614-2.057-5.464-2.8-10.731-2.8-3.945 0-8.364-.6-9.82-1.334-1.457-.733-3.862-1.947-5.346-2.696-3.548-1.794-25.886-.434-44.14 2.689-13.863 2.371-14.339 2.368-21.975-.152-11.472-3.784-17.5-4.481-21.274-2.461-2.604 1.393-4.954 1.433-11.653.2-9.45-1.742-13.805-.926-22.39 4.193l-5.575 3.325-5.481-2.811c-3.015-1.546-7.138-4.01-9.162-5.477-2.48-1.796-6.373-2.816-11.93-3.126-4.538-.254-8.882-.969-9.653-1.588s-6.113-3.076-11.87-5.458-13.535-6.395-17.284-8.919c-7-4.71-8.484-4.855-16.476-1.602-4.823 1.964-7.283.693-10.364-5.353-1.511-2.965-1.233-5.874 2.045-21.43 4.509-21.393 4.799-28.277 1.397-33.128-3.6-5.136-5.307-11.755-5.422-21.04-.114-9.177.788-10.47 8.284-11.87 3.703-.692 5.577-1.967 7.035-4.786 1.093-2.114 2.907-3.843 4.031-3.843 1.125 0 1.674-.6 1.22-1.333-.452-.734-2.002-1.334-3.442-1.334-2.436 0-2.477-.217-.583-3.106 2.682-4.094 1.753-4.736-5.01-3.463-4.908.924-5.927.686-7.935-1.852-1.267-1.602-2.317-3.432-2.333-4.067s-1.163-.86-2.549-.497c-1.385.362-3.335.142-4.333-.488-1.473-.932-1.23-2.176 1.292-6.62 1.709-3.01 2.909-5.598 2.667-5.752-.242-.155-2.09-.99-4.107-1.856-2.17-.932-3.666-2.614-3.666-4.122 0-1.841-1.257-2.782-4.538-3.398-2.496-.468-4.877-1.735-5.292-2.815-.49-1.28-2.625-1.964-6.128-1.964-5.617 0-6.344 1.033-3.919 5.564 1.054 1.97 1.054 3.126 0 4.18-1.876 1.876-1.859 7.371.042 12.823 1.406 4.033 1.221 4.534-3 8.144-5.606 4.794-7.54 4.897-9.217.487-.725-1.908-2.06-3.19-2.967-2.85-6.71 2.522-7.284 2.416-8.967-1.647-1.86-4.49-3.594-4.975-7.426-2.076-4.347 3.287-7.495 2.316-13.904-4.291-6.52-6.722-15.76-13.751-21.476-16.34-2.95-1.335-3.442-2.38-3.348-7.113.075-3.784-.835-6.819-2.864-9.547-2.657-3.574-2.809-4.534-1.426-9.007 1.39-4.496 1.253-5.322-1.344-8.086-1.591-1.694-2.893-4.39-2.893-5.993 0-2.423-.761-2.914-4.513-2.914-3.343 0-5.08-.865-6.698-3.334-2.89-4.41-5.435-4.212-7.42.581-1.494 3.606-1.891 3.791-5.056 2.349-2.689-1.225-3.556-1.201-3.993.11-.307.921-1.464 2.58-2.571 3.688-2.316 2.316-.678 5.253 3.705 6.644 3.342 1.06 3.239 3.992-.227 6.42-1.525 1.068-2.59 3.052-2.367 4.408 1.106 6.712-6.439 8.01-10.817 1.86-1.784-2.504-3.545-3.655-4.837-3.16-2.974 1.142-10.099-6.087-9.1-9.232.521-1.644-.353-3.542-2.583-5.608-1.865-1.73-4.34-6.458-5.541-10.592-1.643-5.652-2.781-7.468-4.68-7.468-1.46 0-4.183-2.435-6.523-5.837-2.21-3.21-8.538-9.884-14.064-14.83-8.75-7.831-10.048-9.575-10.048-13.496 0-8.044-3.52-5.213-9.737 7.83-8.086 16.97-8.308 17.859-4.905 19.68 2.218 1.187 3.503 1.062 6.018-.585 4.64-3.04 7.411-2.594 12.29 1.979 3.245 3.04 4.334 5.201 4.334 8.6 0 3.095 1.089 5.627 3.425 7.963 5.139 5.14 3.86 7.88-4.106 8.792-16.534 1.896-19.283 3.975-21.405 16.19-1.08 6.215-2.349 7.198-10.417 8.062-5.316.57-7.42 1.634-11.533 5.84-6.298 6.441-7.766 10.606-4.143 11.756 3.404 1.08 4.654 4.544 2.554 7.074-.919 1.107-4.187 3.092-7.263 4.41-7.1 3.044-8.282 5.46-7.21 14.738.478 4.124.46 9.024-.039 10.889-.714 2.67-.104 4.16 2.87 7.009 3.421 3.278 3.971 3.422 5.856 1.537 1.617-1.616 3.045-1.804 6.404-.84 2.377.681 5.938 1.24 7.913 1.24 2.804 0 4.25 1.175 6.611 5.375 1.713 3.047 4.353 5.71 6.097 6.147 1.72.432 3.414 2.12 3.843 3.83.547 2.18 2.065 3.303 5.28 3.906 5.82 1.092 8.596 3.952 8.596 8.858 0 3.175.894 4.353 4.667 6.152 3.659 1.745 4.666 3.015 4.666 5.884 0 3.279.747 3.875 7.206 5.753 3.962 1.152 7.798 2.094 8.524 2.094s1.689.965 2.141 2.145c.61 1.587 1.944 1.958 5.143 1.428 8.454-1.4 12.35-2.614 14.554-4.53 3.48-3.027 7.035-1.624 7.523 2.969.233 2.193 1.649 4.94 3.146 6.105 2.585 2.009 2.614 2.326.577 6.267-2.778 5.372-2.706 6.593.452 7.595 2.681.85 4.867 5.275 4.225 8.553-.292 1.49 1.048 1.697 6.669 1.031 8.275-.98 11.84 1.231 11.84 7.344 0 2.863-.846 4.148-3.362 5.104-2.21.84-3.636 2.647-4.16 5.27-1.078 5.388-3.736 7.458-7.45 5.8-2.103-.938-5.123-.608-10.904 1.191-8.874 2.762-13.59 2.314-20.62-1.959-4.105-2.494-5.075-2.585-11.097-1.041-6.134 1.571-6.78 1.497-9.164-1.062-2.15-2.308-3.611-2.628-9.056-1.983-4.283.507-6.821.237-7.458-.794-.738-1.193-1.41-1.194-2.847 0-2.815 2.335-2.288 5.012 1.65 8.4l3.532 3.038-2.227 5.898c-1.225 3.244-2.676 9.498-3.224 13.898l-.997 8-7.641-.448-7.641-.448v4.62c0 3.92-.633 4.882-4.179 6.35-3.72 1.541-4.379 1.458-6-.76-1.002-1.37-1.821-3.828-1.821-5.463 0-4.532-6.76-5.583-11.984-1.862-2.209 1.572-4.016 3.103-4.016 3.401s1.872 1.51 4.16 2.693l4.16 2.151-4.041 2.458c-2.223 1.352-4.401 3.592-4.842 4.98-.44 1.386-3.467 4.52-6.726 6.961-8.6 6.444-11.102 14.976-5.913 20.166 1.93 1.93 2.626 3.98 2.24 6.605-.448 3.056-.014 3.885 2.202 4.202 2.038.291 2.87 1.532 3.179 4.745.335 3.48 1.296 4.718 4.802 6.183 2.41 1.007 5.711 3.698 7.336 5.979s4.34 4.496 6.037 4.921c1.696.426 6.307 3.754 10.245 7.395 7.725 7.142 17.428 11.03 25.739 10.314 3.49-.3 5.386.458 8.214 3.286 2.47 2.47 4.365 3.35 5.776 2.683 3.73-1.765 12.377-.758 15.868 1.849 6.727 5.022 8.306 8.523 8.61 19.087l.287 9.952-4.333.418c-5.777.557-5.608 3.68.333 6.163 4.262 1.78 4.667 2.426 4.667 7.439 0 3.019-.588 6.586-1.306 7.928-.946 1.769-.768 2.885.65 4.061 2.524 2.095 1.222 4.291-5.078 8.564-4.092 2.777-6.045 3.28-10.155 2.624-5.938-.95-11.97 1.478-9.588 3.86 2.182 2.182 1.799 8.534-.57 9.443-1.815.697-1.793 1.172.194 4.204 1.953 2.981 2.018 4.09.506 8.671-.954 2.89-2.84 6.255-4.194 7.48-1.352 1.223-2.46 2.732-2.46 3.352 0 2.629 5.61 6.46 9.459 6.46 2.963 0 4.316.73 4.802 2.591.414 1.584 2.051 2.75 4.209 3 2.68.31 3.838 1.453 4.806 4.742.936 3.179 2.053 4.333 4.191 4.333 1.603 0 3.26.9 3.683 2 .535 1.395 2.71 2 7.179 2 7.568 0 13.34 3.188 10.96 6.055-.828.997-4.677 3.603-8.553 5.791s-7.4 4.892-7.828 6.01c-.43 1.117-3.209 3.564-6.177 5.438-8.745 5.52-6.483 12.89 6.117 19.933 7.202 4.025 7.153 4.015 7.153 1.502 0-3.16 15.332-1.707 22.65 2.145 6.33 3.331 8.395 7.22 4.607 8.673-4.703 1.805-13.924 12.44-13.924 16.06 0 1.946-.688 5.44-1.528 7.764-1.918 5.303-.631 10.77 2.742 11.651 1.417.37 3.808 3.087 5.312 6.037s3.4 5.584 4.213 5.854c.812.271 1.907 2.576 2.433 5.123.804 3.89.467 5.02-2.107 7.061-3.848 3.051-3.972 8.433-.284 12.358 2.127 2.265 2.47 3.54 1.46 5.428-.914 1.708-.772 4.064.46 7.647 1.525 4.437 1.5 5.46-.182 7.142-1.727 1.727-1.686 2.383.343 5.479 4.884 7.449 5.27 9.36 5.052 25.039-.207 14.839-.026 16.042 2.933 19.58 1.735 2.073 3.519 5.223 3.965 7s1.25 3.23 1.785 3.23c1.5 0 4.07 6.397 4.07 10.13 0 1.835-.918 5.11-2.04 7.28-1.84 3.56-1.825 4.687.157 11.6 1.208 4.211 2.129 9.574 2.046 11.916-.082 2.342.432 4.618 1.143 5.058.729.45.938 3.394.479 6.741-.552 4.025-.326 5.942.7 5.942.833 0 1.515 1.225 1.515 2.723s1.115 3.919 2.478 5.382c2.169 2.328 3.204 2.497 8.3 1.352 4.037-.907 6.094-.87 6.707.122 1.736 2.809 10.06-4.47 11.236-9.826.69-3.146 1.206-3.586 2.725-2.326 1.03.855 3.102 1.233 4.605.84s4.356.133 6.34 1.168c5.54 2.89 8.78 2.329 11.313-1.96 2.065-3.495 2.092-4.304.287-8.623-1.095-2.621-1.987-6.435-1.982-8.476l.009-3.71 2.649 4c1.457 2.2 2.653 5.85 2.658 8.112.013 6.25 1.717 6.641 4.283.982l2.31-5.093-.19 8.293c-.172 7.534.14 8.553 3.414 11.128 1.982 1.559 4.485 2.495 5.564 2.082 2.215-.85 2.702-8.221.627-9.503-.733-.453-1.333-2.492-1.333-4.531 0-2.698-.943-4.138-3.464-5.286-2.215-1.01-3.192-2.288-2.709-3.547 1.08-2.813-.424-5.97-2.843-5.97-1.8 0-1.777-.316.176-2.475 1.49-1.646 3.39-2.255 5.67-1.82 2.974.569 3.33 1.166 2.667 4.476-.667 3.338-.368 3.82 2.373 3.82 3.663 0 7.852 4.078 5.13 4.994-3.831 1.29-.69 11.006 3.558 11.006 2.141 0 3.776-2.517 4.766-7.334.443-2.16 2.527-6.323 5.84-11.666 2.97-4.79 6.836-6.73 6.836-3.428 0 .864 2.203 3.59 4.896 6.056 4.276 3.917 5.14 4.24 6.828 2.552 1.504-1.504 1.65-3.07.662-7.057-.699-2.818-1.888-5.001-2.642-4.852-.755.15-2.043-1.2-2.863-3s-.968-3.271-.328-3.271 1.507.9 1.93 2c.421 1.1 1.685 2 2.808 2s2.042.975 2.042 2.166c0 1.663.87 1.993 3.74 1.419 3.217-.643 3.947-.2 5.218 3.167 1.77 4.687 4.24 4.968 8.043.914 1.548-1.65 3.847-3.858 5.108-4.907 2.477-2.06 2.494-2.61-.264 8.574-.625 2.535-.298 3.333 1.366 3.333 3.025 0 5.101 6.21 4.086 12.217-.941 5.572.228 10.9 2.133 9.723.681-.42 1.88-3.31 2.663-6.422 1.385-5.5 1.572-5.654 6.716-5.525 4.457.111 5.7.806 7.888 4.403 1.429 2.349 3.675 4.27 4.991 4.27 2.86 0 5.844-6.255 6.9-14.465.669-5.2 1.235-5.966 5.485-7.42 2.607-.891 5.435-1.39 6.285-1.106.849.283 1.962-1.178 2.472-3.247 1.164-4.717 4.644-9.664 6.837-9.72.972-.023 1.667 1.625 1.667 3.959 0 2.2.711 4 1.58 4 2.684 0 7.753-5.644 7.753-8.633 0-2.658 2.23-6.034 3.986-6.034.432 0 .762 1.634.733 3.63-.058 4.038 4.11 5.975 6.1 2.835 2.062-3.253 1.324-6.465-1.486-6.465-2.211 0-2.648-.854-2.561-5 .058-2.75.408-4.25.778-3.333s1.482 1.667 2.471 1.667c1.945 0 3.928-4.592 2.784-6.444-.386-.624 1.375-3.147 3.914-5.607l4.614-4.473.045 3.929.044 3.928 2.622-3.148c1.443-1.731 2.623-4.224 2.623-5.54s2.1-4.907 4.666-7.979c5.802-6.944 6.27-14.215 1.524-23.71-1.728-3.46-3.54-7.94-4.025-9.956-.669-2.778-1.685-3.667-4.19-3.667-3.805 0-4.149 1.906-1.354 7.508 2.644 5.3 3.921 17.723 2.244 21.825-1.17 2.864-1.375 2.28-1.448-4.134-.119-10.545-2.218-15.511-9.974-23.601-7.04-7.344-9.748-13.432-7.646-17.19 1.001-1.788 1.396-1.415 2.153 2.035.51 2.323 1.37 4.224 1.909 4.224s1.981 2.1 3.205 4.666c2.922 6.126 4.604 5.91 4.694-.603.055-3.963-.528-5.461-2.35-6.04-1.334-.423-2.778-2.54-3.21-4.703-.531-2.65-1.397-3.7-2.656-3.216-3.487 1.338-.777-5.993 3.284-8.885 4.215-3.001 4.942-6.645 1.84-9.22-1.1-.912-1.976-3.536-1.946-5.83l.053-4.17 1.99 3.667c2.018 3.722 5.918 5.047 5.885 2-.054-4.932-1.78-7.856-4.255-7.209-2.123.556-2.51.05-2.214-2.892.198-1.961-.725-5.207-2.051-7.214-1.71-2.589-2.201-5.108-1.687-8.667.4-2.76 1.108-8.318 1.576-12.351s1.13-8.2 1.474-9.259c.974-3.007 5.842 5.945 5.842 10.743 0 3.091 1.462 5.508 6 9.918 3.3 3.208 6 6.488 6 7.29s1.82 3.12 4.044 5.152c3.009 2.748 4.32 5.437 5.12 10.509.964 6.092 2.02 7.726 9.957 15.393 6.931 6.697 8.879 9.426 8.879 12.44 0 2.124 1.5 6.069 3.333 8.767s3.334 5.466 3.334 6.151c0 1.438 10.161 4.23 15.398 4.23 2.207 0 4.551-1.272 6.194-3.36 1.454-1.849 4.412-4.275 6.574-5.394 3.87-2.001 3.952-1.97 5.336 1.998 1.052 3.02 2.628 4.37 6.284 5.385 2.684.745 5.651 1.359 6.594 1.363.942 0 3.146.946 4.898 2.094 1.895 1.241 5.25 1.916 8.286 1.666 4.986-.41 5.099-.536 4.94-5.526-.091-2.9-1.387-6.765-2.997-8.943-2.186-2.957-2.552-4.536-1.597-6.893.681-1.682 1.581-4.667 2-6.635.9-4.224 3.593-5.288 13.986-5.527 8.674-.2 13.665 2.276 17.231 8.544 1.213 2.132 2.956 3.88 3.873 3.885.916 0 1.666.469 1.666 1.03 0 .563 3.296 2.994 7.323 5.403 7.863 4.702 10.01 7.447 10.01 12.79 0 2.195 1.693 4.924 4.81 7.754 2.645 2.4 6.61 7.928 8.812 12.282 3.26 6.448 3.876 9.038 3.32 13.967-.582 5.169-.214 6.484 2.522 9.02 2.49 2.308 3.203 4.338 3.203 9.122 0 5.249.344 6.047 2.334 5.428 3.736-1.163 5.232.769 6 7.748.442 4.027 1.539 6.994 2.859 7.732 1.42.796 2.14 3.03 2.14 6.644 0 7.927 2.572 15.254 5.997 17.087 2.349 1.257 2.993 2.782 3.016 7.134.015 3.044.447 7.386.96 9.65.676 2.983.167 5.545-1.853 9.314-3.647 6.803-3.534 7.704 1.185 9.485 2.298.867 4.624 3.097 5.522 5.292 2.767 6.766 6.484 14.406 8.154 16.762 1.322 1.863 1.194 3.044-.674 6.205-1.268 2.148-2.306 6.289-2.306 9.202 0 3.083-.837 5.992-2 6.958-1.122.93-2 3.837-2 6.615 0 4.27.949 5.817 6.85 11.17l6.85 6.214-.875 7.667c-.48 4.217-1.236 10.481-1.678 13.92l-.803 6.253 10.898 10.898c10.04 10.04 10.735 11.078 8.828 13.185-3.876 4.283-1.862 7.996 7.477 13.784 1.952 1.21 4.206 4.194 5.01 6.632.833 2.522 3.183 5.448 5.453 6.79 2.194 1.296 3.99 2.922 3.99 3.614s.6 1.258 1.333 1.258 1.333-2.295 1.333-5.1zM770 1185.333c-.453-.733-.189-1.333.588-1.333s1.412.6 1.412 1.333c0 .734-.265 1.334-.588 1.334s-.959-.6-1.412-1.334m-6.58-1.724c.5-1.315 1.245-2.055 1.656-1.644.41.41 0 1.486-.91 2.39-1.317 1.308-1.47 1.154-.747-.746m10.968-7.074c-1.934-3.389-2.223-8.346-.566-9.72 1.82-1.51 9.703-.663 10.832 1.165.33.532-.883.685-2.694.339-2.58-.493-3.293-.073-3.293 1.937 0 3.102-3.316 7.968-4.28 6.28m185.717-54.646c.064-1.553.38-1.87.806-.806.385.963.338 2.113-.105 2.556-.444.443-.759-.344-.7-1.75m190.08 133.778c1.24-2.384 2.404-7.334 2.59-11 .184-3.667 1.05-8.467 1.923-10.667 3.152-7.944 3.99-12.067 3.198-15.737-1.063-4.93-3.691-3.885-4.644 1.847-.95 5.707-3.266 10.053-6.268 11.759-1.954 1.11-2.056 1.744-.65 4.039 2.342 3.827 2.074 6.447-.818 7.994-3.349 1.793-6.011 8.61-4.975 12.739 1.287 5.129 6.758 4.576 9.644-.974m-126.926-77.79c.854-1.169 5.069-4.019 9.366-6.334s7.679-4.81 7.515-5.543 1.068-1.656 2.737-2.05c2.025-.478 3.31-2.03 3.865-4.666.457-2.173 2.727-6.918 5.045-10.545 3.436-5.378 4.212-7.96 4.206-14-.01-9.358-1.925-16.327-5.334-19.412-1.462-1.324-2.659-3.029-2.659-3.788 0-.76.807-.279 1.792 1.07 1.321 1.805 2.726 2.217 5.334 1.562 2.975-.747 3.54-1.622 3.54-5.485 0-5.402-3.585-13.575-6.435-14.669-1.13-.434-3.497.668-5.448 2.538l-3.45 3.304-3.012-4.596c-3.982-6.077-7.98-6.059-12.142.055-3.078 4.52-3.101 4.767-.955 10.131 1.21 3.024 1.9 6.486 1.535 7.692s-.169 6.993.437 12.86c.843 8.161.66 11.758-.778 15.317-1.035 2.558-1.55 5.967-1.147 7.576.573 2.282-.553 3.978-5.123 7.724-4.788 3.923-6.017 5.861-6.73 10.617-1.19 7.929.167 12.766 3.58 12.766 1.49 0 3.407-.956 4.261-2.124M972 1166.512c0-.649.6-1.18 1.333-1.18.734 0 1.334 1.136 1.334 2.524 0 3.411 3.864 4.679 6.63 2.175 1.236-1.118 2.856-2.032 3.601-2.032 2.313 0 5.698-4.645 6.573-9.02.92-4.6 3.686-7.572 8.027-8.623 2.172-.526 2.693-.16 2.24 1.572-.324 1.242.313 3.007 1.417 3.923 4.402 3.653 12.845-5.133 12.845-13.365 0-6.343-1.61-6.477-7.467-.62-2.493 2.493-4.533 4.034-4.533 3.423s-1.1-1.46-2.443-1.886c-2.19-.695-2.328-1.64-1.332-9.09.611-4.573 2.111-10.197 3.333-12.499 1.792-3.375 1.933-4.923.728-8-.822-2.098-1.893-7.279-2.38-11.513-.76-6.594-1.715-8.618-6.661-14.119-3.89-4.326-5.557-7.253-5.11-8.969.479-1.836-1.077-4-5.57-7.755-4.003-3.342-7.456-7.872-9.643-12.649-3.74-8.17-7.459-12.03-11.655-12.099-4.125-.067-5.934 2.565-5.934 8.634 0 3.013-.88 6.643-1.957 8.067-2.747 3.632-2.504 7.757.624 10.588 1.467 1.327 2.667 3.22 2.667 4.207 0 2.102 1.9 2.297 5.194.534 2.072-1.109 2.623-.113 4.615 8.333 1.245 5.276 3.68 12.086 5.411 15.134 2.72 4.786 2.99 6.388 1.987 11.761-1.387 7.426-6.407 17.795-12.085 24.964l-4.123 5.206 2.834 3.017c3.414 3.634 3.489 4.576.615 7.752-2.125 2.348-2.309 2.246-4.371-2.429-2.037-4.617-2.277-4.756-4.448-2.584-1.263 1.263-2.296 3.06-2.296 3.996 0 2.575 4.441 7.102 6.333 6.456.917-.313 1.667.102 1.667.922 0 1.062.744 1.094 2.579.111 1.418-.759 3.518-1.38 4.667-1.38 3.65 0 2.252 2.072-2.58 3.819-4.763 1.722-6.306 4.181-2.624 4.181 1.123 0 2.378.878 2.79 1.95.648 1.69 1.176 1.67 3.958-.153 1.766-1.157 3.21-2.635 3.21-3.284m43.02-39.513c1.498 3.9 4.066 2.79 3.084-1.333-.48-2.017-1.103-5.07-1.384-6.785s-.783-3.39-1.115-3.722c-1.308-1.307-4.731 10.008-3.934 13.001l.845 3.172.803-3.333c.675-2.8.947-2.96 1.7-1m90.713-2.494c10.167-5.149 11.308-9.583 4.934-19.173-2.194-3.3-3.991-6.657-3.995-7.46 0-.803-1.177-2.52-2.608-3.815-1.432-1.296-3.286-5.643-4.12-9.66-2.731-13.158-9.3-16.026-15.884-6.936-3.823 5.278-3.93 5.829-3.18 16.333.632 8.85 1.49 12.01 4.615 16.988 2.111 3.365 3.838 7.056 3.838 8.203 0 2.176 7.392 7.62 10.4 7.658.953.012 3.653-.95 6-2.138M1018.646 1097c-.042-9.011-5.59-10.168-8.396-1.75-1.395 4.184.252 6.028 5.417 6.063 2.504.017 2.996-.696 2.98-4.313m63.433-28.255c2.072-1.539 2.293-2.403 1.11-4.333-.814-1.327-2.914-2.478-4.667-2.558-1.754-.08-4.161-.564-5.35-1.076-2.84-1.224-4.153 2.223-2.5 6.567 1.467 3.86 7.153 4.558 11.407 1.4M976 1042.675c0-4.764-2.163-10.675-3.907-10.675-2.572 0-3.185 9.153-.85 12.715 2.668 4.073 4.757 3.177 4.757-2.04m-16.133-17.008c-.362-9.983-4.45-14.357-5.949-6.366-.683 3.642-.329 5.438 1.464 7.419 3.256 3.599 4.642 3.273 4.485-1.053m-685.2 429.958c0-.206 3.6-11.137 8-24.292 4.4-13.154 8-24.395 8-24.98s-9.45-8.103-21-16.708l-21-15.645 26.104-.36 26.105-.362 7.7-23.639c4.235-13.001 8.137-24.109 8.672-24.683.843-.904 5.748 13.141 14.209 40.684l2.346 7.64 26.486.36 26.486.36-21.23 15.844-21.231 15.845 7.867 23.489c4.327 12.919 7.706 24.265 7.51 25.213-.325 1.565-4.362-1.173-35.191-23.866l-6.834-5.03-20.794 15.253c-18.824 13.807-22.205 16.072-22.205 14.877m1201.333-.513c0-.658 3.597-11.95 7.994-25.093 4.396-13.144 7.546-24.342 7-24.885-.547-.542-10.246-7.92-21.554-16.393l-20.56-15.408h53.474l6.048-19c3.326-10.45 6.791-21.55 7.7-24.666.91-3.117 2.06-5.667 2.556-5.667s4.437 11.088 8.757 24.64l7.854 24.64 26.36.36 26.36.36-21.412 15.82c-11.776 8.7-21.162 16.5-20.857 17.333 4.298 11.735 15.744 47.828 15.306 48.266-.322.321-9.968-6.28-21.436-14.67l-20.851-15.253-17.79 13.06c-21.696 15.928-24.949 18.086-24.949 16.556M177.661 1301c.337-.917 4.084-12.114 8.326-24.884 6.565-19.763 7.425-23.433 5.777-24.667-1.065-.797-10.894-8.049-21.843-16.116l-19.907-14.666 26.821-.36 26.821-.361 7.63-23.64c4.197-13.002 8.074-24.109 8.615-24.682.542-.574 1.734 1.526 2.65 4.667.917 3.14 4.384 14.247 7.705 24.682l6.039 18.973 26.747.36 26.748.36-21.229 15.865a29575 29575 0 0 1-21.54 16.09c-.172.124 3.342 11.171 7.809 24.55 4.466 13.377 7.783 24.66 7.37 25.074-.413.413-9.578-5.68-20.367-13.542-10.788-7.86-20.264-14.53-21.057-14.82-.794-.291-10.442 6.066-21.441 14.127-19.6 14.364-22.909 16.347-21.674 12.99m1395.928.231c5.193-13.71 15.673-48.479 14.84-49.236-.602-.548-9.796-7.448-20.429-15.332s-19.53-14.847-19.768-15.471c-.24-.624 11.396-1.298 25.857-1.497l26.292-.362 7.476-23.571c4.112-12.965 7.827-23.916 8.256-24.336s4.314 10.326 8.634 23.879l7.855 24.642 26.699.36 26.699.36-21.333 15.845a17926 17926 0 0 0-21.646 16.09c-.172.134 3.342 11.19 7.809 24.568s7.791 24.653 7.388 25.056-9.317-5.518-19.809-13.159c-10.491-7.64-19.84-14.35-20.775-14.912-1.086-.651-8.745 4.114-21.224 13.207-20.477 14.921-24.039 17.085-22.82 13.87"/><path style="fill:#008b43" d="M869.333 1817.87c-64.44-4.275-109.759-10.493-160-21.951-229.31-52.3-429.69-191.022-559.374-387.252C104.66 1340.125 72.337 1273.39 45.983 1194-.826 1052.99-11.982 902.616 13.39 754.667c38.437-224.136 161.026-426.25 343.277-565.969C553.196 38.033 801.557-25.99 1049.333 10.138c268.462 39.145 507.251 197.748 648.196 430.529 71.783 118.555 114.434 248.915 127.162 388.666 2.932 32.184 3.993 97.334 2.107 129.334-6.247 106.018-27.93 201.83-67.518 298.354-10.978 26.764-41.116 86.928-56.36 112.508-39.943 67.027-80.209 119.317-134.217 174.297-38.27 38.959-75.607 71.43-114.703 99.751-136.533 98.909-288.578 155.783-459.333 171.82-20.632 1.937-107.553 3.652-125.334 2.473m95.52-19.249c280.71-16.251 534.219-160.155 692.838-393.288 28.04-41.214 61.67-103.055 81.374-149.642 115.666-273.475 87.27-586.275-75.621-833.024-75.991-115.112-172.959-207.537-292.767-279.052-28.258-16.868-89.949-47.388-120.336-59.534C1080.124 16.044 895.233.937 717.778 40.567c-231.217 51.637-434.172 194.377-561.36 394.807C35.91 625.28-7.79 856.103 34.884 1077.334c57.661 298.933 266.37 548.975 551.703 660.961 118.755 46.61 250.975 67.696 378.266 60.326m-64.186-63.067c-13.81-4.59-20.568-11.345-24.706-24.694-3.009-9.703-3.53-27.807-1.128-39.128 3.223-15.191 12.516-27.967 24.178-33.24 9.437-4.265 30.628-4.508 39.186-.449l5.531 2.624-2.747 9.06c-2.196 7.241-3.172 8.877-4.864 8.153-16.235-6.951-25.84-5.862-34.414 3.903-11.231 12.791-11.113 41.354.212 51.297 5.396 4.737 10.852 6.174 18.875 4.971l5.877-.881v-20.21l-7 .68c-3.85.373-7.75.407-8.667.074-1.115-.403-1.667-3.658-1.667-9.825v-9.223h35.586l.869 19c.478 10.45.871 22.377.874 26.505l.005 7.505-9 2.305c-12.016 3.079-30.151 3.85-37 1.573m66.734-5.52c-.926-6.151-6.288-94.258-5.768-94.778.25-.25 4.486-.869 9.411-1.373 8.34-.855 8.956-.737 8.956 1.716 0 5.797 6.738 76.917 7.345 77.524.358.357 8.243-.086 17.523-.986 12.829-1.244 17.103-1.263 17.833-.082 1.45 2.347 2.715 15.068 1.604 16.136-.826.794-32.157 4.186-50.634 5.482-5.39.378-5.691.203-6.27-3.638m-133.578 2.322-6.843-.484-8.655-22.936c-4.76-12.615-10.938-29.836-13.728-38.27l-5.074-15.333-2.367 18.667c-2.673 21.087-7.412 51.367-8.154 52.11-.46.46-17.27-1.933-17.883-2.546-.413-.414 16.46-96.922 17.048-97.505.275-.273 5.364.148 11.31.934l10.81 1.429 6.03 18.122c3.317 9.968 9.241 26.523 13.165 36.79 7.075 18.515 7.14 18.623 8.082 13.333.522-2.934 1.93-17.334 3.128-32s2.474-27.717 2.834-29c.52-1.858 2.139-2.334 7.939-2.334 5.07 0 7.507.577 8.013 1.897.4 1.044-.819 22.494-2.71 47.667-1.89 25.173-3.437 46.82-3.436 48.103.002 2.452-2.028 2.593-19.509 1.356m194.634-7.327c2.491-9.928 14.21-91.509 14.21-98.928 0-1.226 3.588-2.481 11-3.847 6.05-1.116 11.043-1.93 11.097-1.808 2.094 4.762 23.813 43.097 35.47 62.608 8.671 14.513 15.766 26.867 15.766 27.454s-3.45 1.815-7.667 2.728a1140 1140 0 0 0-10.516 2.319c-2.426.56-3.706-.948-8.61-10.151-3.168-5.946-6.407-10.562-7.197-10.259-.79.304-7.559 1.623-15.04 2.933-15.316 2.68-14.334 1.627-15.63 16.763l-.871 10.175-6.901.872c-3.796.48-8.937 1.234-11.425 1.676-4.3.764-4.483.638-3.686-2.535m45.568-47.999c.17-.2-3.452-7.959-8.047-17.242l-8.354-16.878-.834 10.212a4811 4811 0 0 1-1.6 19.08l-.767 8.868 9.647-1.838c5.306-1.011 9.786-2.002 9.955-2.202M750 1719.872a1495 1495 0 0 1-8.165-1.85c-2.552-.59-2.891-1.775-3.427-11.987-.327-6.233-.96-11.698-1.407-12.145-.446-.447-7.365-2.413-15.375-4.37l-14.564-3.56-5.642 9.677c-3.102 5.321-6.1 9.96-6.663 10.307-.87.538-20.003-4.231-21.16-5.274-.22-.2 5.803-9.582 13.386-20.85s20.3-30.987 28.259-43.82a14905 14905 0 0 1 14.614-23.54c.409-.588 19.98 4.864 20.778 5.789.515.596 1.642 11.584 2.505 24.418 1.549 23.046 6.108 67.886 7.624 75 .682 3.197.384 3.65-2.324 3.533-1.708-.075-5.506-.672-8.439-1.328M736.517 1655c-.486-10.083-.977-18.459-1.09-18.612-.17-.229-16.51 28.926-17.828 31.808-.35.764 13.411 4.552 18.102 4.982 1.342.123 1.514-3.706.816-18.178m389.736 52c-1.739-3.045-24.924-93.914-24.244-95.015.448-.725 1.594-1.318 2.546-1.318s8.257-1.871 16.233-4.158c16.505-4.731 26.364-4.79 36.627-.221 21.948 9.772 36.524 48.395 26.683 70.7-5.622 12.743-16.683 20.115-40.514 27.001-14.84 4.288-16.443 4.566-17.33 3.011m32.082-29.249c6.607-4.911 8.72-10.09 8.012-19.626-1.223-16.437-11.557-33.703-21.696-36.248-3.915-.983-17.666 1.214-19.432 3.105-.524.56.997 7.618 3.38 15.685 2.381 8.066 6.282 21.36 8.668 29.54l4.338 14.872 6.197-2.052c3.409-1.13 8.149-3.503 10.533-5.276m-529.002 8.407c-20.718-7.406-26.011-9.807-25.795-11.7.293-2.565 35.169-88.224 36.489-89.621 1.407-1.489 30.633 9.316 38.237 14.136 3.158 2.001 6.938 5.601 8.4 8 3.436 5.634 3.512 17.044.163 24.416-2.851 6.276-9.806 12.611-13.845 12.611-2.624 0-2.55.277 1.102 4.091 3.54 3.7 3.914 4.945 3.891 13-.032 11.503-4.086 20.288-11.683 25.315-4.352 2.88-7.197 3.632-14.838 3.922-7.939.3-11.485-.368-22.12-4.17m25.199-18.68c4.222-4.496 4.862-10.193 1.609-14.33-3.102-3.942-17.056-10.16-18.708-8.335-1.384 1.529-8.545 20.56-7.912 21.027.985.727 12.58 4.66 15.146 5.136 4.014.746 6.808-.245 9.865-3.499m11.285-38.82c2.748-2.747 3.911-6.904 2.975-10.632-.742-2.956-12.206-10.026-16.258-10.026-1.444 0-9.081 17.23-8.08 18.231.227.228 2.768 1.277 5.646 2.33 6.921 2.536 13.24 2.575 15.717.098m532.85 4.565c-9.9-25.05-18.16-45.95-18.353-46.443s1.906-1.699 4.667-2.68c2.76-.98 12.5-5.004 21.642-8.941 9.143-3.937 16.983-7.159 17.422-7.159 1.055 0 8.597 15.819 7.86 16.484-.315.284-6.422 3.077-13.572 6.206s-13 5.923-13 6.207c0 .64 6.814 16.958 7.301 17.486.195.21 5.859-2.04 12.587-5s12.723-5.383 13.323-5.383c1.107 0 8.745 15.945 7.91 16.511-.25.17-6.263 2.893-13.363 6.052-14.501 6.453-13.778 4.541-7.266 19.203 3.978 8.956 2.753 8.912 20.51.747 6.195-2.849 11.722-5.18 12.282-5.18 1.282 0 8.523 15.972 7.641 16.853-1.084 1.085-42.871 18.917-46.348 19.779-3.151.781-3.753-.485-21.243-44.742m72.333 6.231c-2.383-4.86-4.333-9.04-4.333-9.287s4.517-.79 10.04-1.208c11.266-.852 20.883-4.743 24.187-9.786 1.726-2.633 1.81-3.864.483-7.066-2.172-5.246-6.603-6.788-22.886-7.966-15.865-1.148-21.98-3.481-27.909-10.648-3.907-4.724-7.923-15.252-7.908-20.735.04-14.557 12.15-25.695 31.26-28.747 10.464-1.672 10.667-1.542 12.055 7.714.49 3.272 1.175 6.686 1.52 7.587.43 1.12-1.752 1.918-6.888 2.522-8.861 1.041-14.454 3.655-17.382 8.123-1.816 2.77-1.865 3.764-.346 6.933 2.565 5.35 7.1 7.068 18.708 7.09 15.176.03 23.098 2.12 29.317 7.74 13.343 12.054 14.722 28.164 3.501 40.912-6.866 7.8-19.954 14.148-30.968 15.018l-8.118.642zm-753.567-3.49c-3.978-2.192-7.493-4.246-7.812-4.565-.8-.801 47.936-87.572 48.927-87.108 7.906 3.712 41.452 21.29 41.452 21.723 0 .44-5.536 12.533-7.508 16.402-.117.228-6.23-2.605-13.586-6.296l-13.373-6.71-5.433 9.899c-2.988 5.444-5.433 10.221-5.433 10.615s5.55 3.491 12.333 6.883 12.523 6.338 12.754 6.545c.231.208-1.428 4.04-3.687 8.515l-4.107 8.137-13.229-6.638-13.229-6.639-8.825 16.637c-4.854 9.15-9.542 16.625-10.418 16.612s-4.847-1.818-8.826-4.011m801.508-61.757c-14.084-23.028-25.596-42.395-25.581-43.038.014-.643 3.439-3.165 7.61-5.604 6.526-3.815 7.778-4.153 8.974-2.422.764 1.107 5.458 8.328 10.432 16.047l9.042 14.034 10.29-6.607c5.661-3.633 11.596-7.659 13.19-8.945l2.897-2.339-10.564-14.63c-5.81-8.047-10.564-15.288-10.564-16.092 0-1.992 13.723-11.429 14.881-10.233 2.375 2.45 58.446 78.394 58.45 79.164 0 .964-12.58 10.253-15.307 11.3-1.045.4-6.002-5.48-12.721-15.093-6.055-8.662-11.47-16.264-12.033-16.892-1.524-1.703-28.209 16.28-27.044 18.224.523.872 5.215 8.186 10.426 16.252 5.212 8.067 9.926 15.406 10.476 16.31.66 1.085-1.512 3.248-6.401 6.376-4.07 2.604-8.176 5.032-9.124 5.395-1.118.43-10.704-14.024-27.33-41.207m-851.753 31.98c-3.013-.987-8.83-4.02-12.929-6.74-24.78-16.448-23.953-45.658 2.085-73.539 12.228-13.094 21.452-17.906 34.323-17.906 15.245 0 31.102 10.193 37.042 23.812 3.391 7.774 2.766 23.105-1.354 33.225-7.434 18.255-19.124 33.23-30.464 39.02-7.224 3.688-20.857 4.7-28.703 2.129m17.646-20.355c6.16-2.924 13.813-11.885 19.676-23.044 6.14-11.683 7.235-19.123 3.747-25.455-3.338-6.058-13.077-11.284-18.72-10.044-6.14 1.348-15.014 7.846-20.425 14.955-14.924 19.608-15.655 34.218-2.119 42.33 6.587 3.948 11.448 4.29 17.84 1.258m1212.19-449.455-7.643-6.084 4.65-6.336c6.073-8.272 8.636-14.604 8.636-21.335 0-14.436-14.095-24.712-36-26.247-20.699-1.45-29.21 8.228-29.301 33.317-.037 10.179 1.11 9.656-12.453 5.668-5.467-1.607-5.588-1.772-5.998-8.13-.98-15.194 4.868-33.59 13.385-42.108 7.498-7.497 15.896-10.733 29.7-11.443 26.887-1.384 49.675 9.786 57.326 28.099 5.501 13.165 3.15 34.016-5.457 48.39-7.954 13.285-7.955 13.286-16.845 6.209m-1564.538-12.496c-7.204-2.088-16.886-9.591-22.174-17.187-7.804-11.207-10.979-23.038-10.979-40.917 0-8.19.318-15.207.706-15.594s4.887.352 10 1.643l9.294 2.346-.666 4.581c-4.08 28.033 11.423 46.938 34.9 42.558 9.796-1.828 23.068-8.585 26.597-13.541 3.978-5.586 4.72-15.086 1.855-23.714-1.473-4.434-2.898-6.67-3.986-6.253-.93.357-4.37 1.05-7.642 1.541-9.451 1.418-9.641 1.718-7.37 11.675l1.98 8.68-8.834 1.953c-4.858 1.074-9.201 1.591-9.65 1.15-1.04-1.02-8.4-38.697-7.698-39.399.61-.61 47.191-8.736 50.075-8.736 2.185 0 8.192 12.51 11.843 24.666 3.528 11.746 3.401 28.908-.273 36.866-5.69 12.323-19.701 22.445-37.43 27.04-8.753 2.267-23.845 2.585-30.548.642m1550.929-88.061c-26.356-4.334-48.076-8.036-48.267-8.228-.343-.343 2.31-19.968 2.781-20.566.346-.44 98.436 12.895 99 13.46 1.014 1.012-3.01 22.647-4.262 22.921-.734.161-22.897-3.253-49.252-7.587M115.738 1023.56c-12.247-3.474-20.615-11.092-26.691-24.298-2.66-5.783-3.035-8.724-3.04-23.927-.007-16.241.219-17.76 3.574-24.12 6.89-13.057 17.926-19.718 36.678-22.139 18.544-2.394 36.8 1.963 48.031 11.462 15.203 12.859 18.35 47.137 5.904 64.318-5.057 6.98-14.607 13.207-25.47 16.606-11.08 3.466-30.48 4.51-38.986 2.098m36.99-26.113c12.468-5.514 17.686-13.591 16.008-24.78-1.14-7.6-5.465-13.77-12.07-17.216-4.42-2.306-7.73-2.782-19.333-2.782-11.977 0-14.913.45-20.324 3.114-3.478 1.713-7.636 4.958-9.24 7.211-3.484 4.892-4.744 16.014-2.563 22.621 1.776 5.383 8.47 12.114 14.127 14.205 6.467 2.39 25.715 1.023 33.394-2.373m1496.22-4.116c-4.245-.543-8.052-1.322-8.46-1.73-.41-.41-.112-6.936.66-14.505.773-7.568 1.813-20.593 2.312-28.945l.907-15.184 18.817.836c10.349.459 32.766 1.231 49.816 1.716l31 .881-.02 10.134c-.011 5.574-.547 10.967-1.192 11.984-.997 1.574-6.504 1.522-36.98-.349-19.694-1.209-37.671-2.191-39.95-2.183l-4.142.016-.908 12.333c-1.316 17.874-2.395 26.358-3.324 26.159-.45-.096-4.29-.62-8.535-1.163zM84 910.776c0-12.055.036-12.19 3.667-13.573 6.53-2.488 48.571-14.777 60.907-17.803l11.99-2.941-6.382-1.607c-7.623-1.92-27.148-9.193-50.69-18.883l-17.174-7.07.698-11.196c.385-6.157 1.037-11.533 1.45-11.946.412-.413 11.656 4.221 24.987 10.298 13.33 6.076 34.807 15.365 47.725 20.642l23.489 9.595-.459 11.188c-.252 6.152-.626 11.36-.83 11.573-.205.212-12.664 4.238-27.686 8.946-22.102 6.927-56.791 18.936-69.359 24.01-2.12.857-2.333-.167-2.333-11.233m1576.417 2.53c-5.848-2.97-11.398-9.186-13.88-15.548-1.303-3.338-5.658-51.082-4.743-51.996.762-.762 98.296-8.783 98.943-8.137 1.844 1.845 3.61 40.148 2.284 49.589-2.71 19.309-9.029 26.123-24.218 26.114-9.72-.005-15.623-2.604-19.56-8.611l-2.234-3.41-2.171 4.252c-3.657 7.16-8.42 9.675-19.239 10.156-7.727.343-10.688-.127-15.182-2.41m21.842-23.19c3.474-2.989 3.775-4.043 4.216-14.778l.474-11.56-12.474.946c-6.861.521-12.551 1.021-12.644 1.112-.093.09.228 4.885.715 10.654.78 9.253 1.32 10.866 4.577 13.667 4.732 4.07 10.373 4.055 15.136-.041m36.945-.966c1.832-.835 3.96-3.324 4.73-5.533 1.602-4.595 1.902-20.56.4-21.255-.55-.253-5.429-.237-10.84.038l-9.84.5.916 10.113c1.033 11.402 2.319 14.62 6.517 16.311 3.922 1.58 4.283 1.572 8.117-.174M134.667 818.33c-24.567-2.93-44.816-5.452-44.997-5.604-.875-.732 8.288-60.425 9.46-61.629.378-.387 16.969 3.223 17.57 3.824.305.305-.928 8.572-2.742 18.37-1.813 9.798-3.145 17.952-2.96 18.12.634.578 18.873 3.162 19.3 2.734.236-.235 1.697-7.564 3.248-16.287s3.011-16.082 3.244-16.355c.982-1.15 17.875 2.931 17.856 4.314-.01.833-1.21 8.066-2.666 16.071s-2.445 14.757-2.2 15.002c.752.752 22.21 3.564 22.782 2.985.295-.298 1.842-7.743 3.438-16.543s3.09-16.191 3.321-16.426c.398-.403 16.929 2.494 17.719 3.106.205.159-1.085 8.92-2.867 19.471-1.781 10.55-3.642 22.633-4.135 26.85L189.14 824l-4.904-.17c-2.697-.094-25.004-2.569-49.57-5.499m1520.47-.502c-11.518-4.083-20.355-16.96-22.995-33.509-1.481-9.285-.205-20.42 3.066-26.745 2.629-5.083 9.3-11.746 14.401-14.384 3.835-1.983 73.01-18.35 73.88-17.48.557.558 5.86 22.77 5.474 22.932-.163.07-14.975 3.004-32.917 6.522-17.94 3.518-34.238 7.233-36.215 8.256-10.667 5.516-12.396 20.093-3.508 29.581 5.445 5.813 9.407 5.876 45.142.716 18.278-2.64 33.516-4.514 33.863-4.167 1.293 1.292 3.487 21.495 2.434 22.405-1.471 1.27-62.004 8.107-70.429 7.954-3.666-.066-9.155-1.003-12.196-2.08M150.67 741.445c-34.96-7.806-46.093-10.766-46.396-12.339-.822-4.267 7.86-35.469 12.477-44.842 6.643-13.485 12.381-17.608 24.449-17.568 5.747.02 10.737.909 14.384 2.565 6.084 2.761 13.47 11.698 14.687 17.767.407 2.032 1.22 3.991 1.807 4.354.587.362 11.703-2.357 24.701-6.043 13-3.687 23.904-6.434 24.232-6.106.329.329-1.01 5.425-2.975 11.325-3.523 10.58-3.648 10.747-9.137 12.164-20.167 5.207-35.112 9.753-36.4 11.073-.826.846-1.872 3.128-2.325 5.07l-.824 3.532 18.112 4.448 18.112 4.448-.841 5.353c-1.704 10.845-3.42 15.36-5.784 15.212-1.255-.079-22.981-4.764-48.28-10.413m2.683-32.206c2.284-10.76-.04-16.34-7.768-18.654-7.07-2.118-10.373-.14-14.25 8.53-5.258 11.762-5.33 12.68-1.077 13.652 2.058.47 6.742 1.636 10.409 2.59 10.857 2.824 10.78 2.86 12.686-6.118m1518.066 6.635c-10.78-2.606-20.004-12.86-24.855-27.633-1.61-4.9-3.04-9.053-3.18-9.23-.139-.179-6.207 1.675-13.485 4.118-21.848 7.334-19.627 7.699-23.24-3.817-1.717-5.478-2.868-10.162-2.557-10.408.31-.247 20.665-7.4 45.231-15.894s45.58-15.808 46.697-16.253c1.604-.64 3.217 2.76 7.691 16.217 7.633 22.95 9.209 31.885 7.262 41.167-.84 4-2.768 9.018-4.287 11.15-5.692 7.995-23.673 13.389-35.277 10.583m16.684-26.438c2.334-2.335 3.897-5.306 3.897-7.41 0-4.696-2.707-15.227-4.142-16.114-.91-.562-15.034 3.273-24.867 6.752-2.468.873 2.732 13.892 7.056 17.67 5.157 4.503 13.046 4.111 18.056-.898M177 652.99c-34.131-11.938-46.321-16.748-46.287-18.265.026-1.133 2.278-7.46 5.006-14.06l4.958-12 21.328-3.568c11.73-1.963 30.025-4.56 40.653-5.77 10.63-1.21 19.479-2.353 19.666-2.54.187-.188-3.41-1.829-7.992-3.647-19.428-7.71-55.61-24.59-55.637-25.957-.016-.815 1.764-5.434 3.954-10.265l3.983-8.783 9.684 4.447c5.326 2.446 25.721 12.266 45.323 21.824l35.638 17.377-5.393 11.839-5.392 11.839-21.986 2.336c-20.02 2.127-49.514 6.363-57.836 8.307-2.686.628-1.139 1.485 8 4.43 19.773 6.373 55.997 20.531 55.997 21.886 0 2.284-5.657 16.915-6.512 16.844-.452-.038-21.672-7.361-47.155-16.274m1415.72-11.324c-2.144-5.684-6.821-16.865-10.395-24.847s-6.009-14.996-5.411-15.585c1.428-1.407 87.078-41.235 88.676-41.235 1.565 0 11.603 21.455 19.284 41.217 4.598 11.829 5.53 15.461 4.187 16.314-3.77 2.392-14.696 5.365-15.74 4.283-.609-.631-3.917-8.197-7.352-16.814s-6.767-15.667-7.403-15.667c-1.099 0-16.007 6.33-16.818 7.14-.211.212 2.309 7.085 5.6 15.274 3.292 8.19 5.985 15.346 5.984 15.905 0 1.515-16.383 7.186-17.392 6.02-.478-.553-3.412-7.42-6.52-15.262-6.362-16.049-4.39-15.157-19.087-8.629-4.216 1.873-7.666 3.915-7.666 4.537s2.73 7.924 6.068 16.227 5.887 15.22 5.666 15.37c-.932.635-16.05 6.085-16.878 6.085-.499 0-2.66-4.65-4.803-10.333m-27.021-59.663c-4.799-9.698-4.922-10.279-2.907-13.732 1.157-1.983 6.154-10.597 11.105-19.142l9.001-15.537-2.379-3.797a1222 1222 0 0 1-2.611-4.18c-.128-.212-7.556 3.892-16.506 9.12s-16.402 9.3-16.559 9.05c-8.877-14.11-10.4-17.46-8.67-19.056 1.005-.927 20.074-12.937 42.376-26.69l40.549-25.004 2.382 3.149c6.048 7.992 19.941 34.616 21.793 41.762 2.434 9.39 2.476 10.501.647 17.09-4.479 16.126-24.76 24.376-40.427 16.444l-6.292-3.185-1.717 2.852c-.945 1.569-6.383 11.108-12.084 21.199-5.7 10.09-10.889 18.67-11.528 19.065-.64.396-3.417-3.838-6.173-9.408m52.599-51.3c2.363-1.442 4.685-4.166 5.159-6.054.956-3.81-2.046-12.761-5.999-17.89l-2.497-3.239-9.814 5.771c-5.397 3.175-10.037 5.955-10.309 6.18-1.317 1.085 7.217 13.007 10.934 15.273 5.304 3.234 7.162 3.228 12.526-.042M223.333 549.336c-23.466-12.403-43.243-22.77-43.949-23.038s2.281-6.892 6.637-14.72c5.632-10.123 8.505-14.058 9.949-13.628 1.116.333 11.813 2.728 23.77 5.323 11.958 2.594 27.667 6.22 34.91 8.055 7.241 1.836 13.567 3.338 14.057 3.338s-2.097-3.45-5.748-7.667c-12.203-14.095-41.626-51.544-41.599-52.947.048-2.482 17.298-25.398 18.819-25 2.85.748 79.821 56.418 79.821 57.732 0 .731-2.453 4.579-5.452 8.55l-5.451 7.22-18.215-12.184c-10.019-6.702-23.615-16.081-30.215-20.843s-11.351-7.804-10.558-6.76c7.242 9.533 29.638 37.556 37.475 46.89l9.788 11.659-4.971 7.675a7050 7050 0 0 0-5.278 8.155c-.168.265-10.39-1.97-22.715-4.965-27.149-6.598-46.46-10.872-48.727-10.783-.925.036 2.519 2.196 7.652 4.8C237.404 533.34 276 554.795 276 555.478c0 1.606-8.166 16.516-9.02 16.467-.539-.031-20.18-10.204-43.647-22.607M1506.29 473.21c-7.943-1.87-12.068-4.532-19.318-12.464-6.754-7.39-14.972-21.766-14.972-26.19 0-2.132 12.692-14.557 14.87-14.557.504 0 1.937 3.15 3.186 7 6.824 21.046 18.193 31.417 25.944 23.667 3.25-3.25 3.416-9.324.584-21.334-3.13-13.274-2.756-25.512.99-32.286 8.322-15.054 28.014-18.637 41.877-7.62 10.4 8.265 21.649 26.954 22.333 37.106.19 2.827-.637 3.403-7.117 4.944-10.386 2.47-10.23 2.527-12.603-4.617-4.415-13.292-13.676-23.718-19.397-21.836-3.971 1.305-6.667 4.8-6.667 8.64 0 2.154 1.234 9.972 2.742 17.373 2.843 13.949 2.623 21.011-.865 27.83-2.829 5.53-12.124 12.71-18.546 14.328-6.54 1.647-6.12 1.646-13.041.016M293.735 438.3c-21.413-16.298-38.963-29.986-39-30.416-.176-2.024 38.024-47.945 39.79-47.833.445.028 3.8 2.688 7.458 5.91l6.65 5.86-2.783 3.09c-7.66 8.5-21.864 25.516-21.546 25.808.2.182 3.608 3.015 7.574 6.294l7.21 5.963 10.534-12.155c5.793-6.685 11.091-12.352 11.774-12.594 1.635-.579 13.17 9.32 13.227 11.35.024.867-4.456 6.738-9.956 13.046s-10 11.717-10 12.02 3.99 3.792 8.869 7.753l8.869 7.202 8.13-9.35A6895 6895 0 0 1 352 417.095l3.333-3.805 7.108 6.355L369.55 426l-7.59 8.667c-4.174 4.766-12.034 14.216-17.466 21-5.433 6.783-10.316 12.318-10.852 12.3-.537-.019-18.495-13.369-39.907-29.667m51.492-59.21c-19.375-18.102-35.362-33.552-35.528-34.334s4.035-6.09 9.334-11.794l9.634-10.372 22.45 6.015c19.168 5.135 49.589 13.907 56.747 16.363 1.175.403-2.454-4-8.063-9.784-5.61-5.785-16.568-17.682-24.352-26.439l-14.154-15.921 6.89-6.079c3.788-3.343 7.637-6.525 8.552-7.07 1.116-.665 12.13 11.309 33.463 36.382 17.49 20.555 31.955 37.816 32.144 38.356.189.541-4.144 4.758-9.63 9.371l-9.972 8.388-18.371-5.985c-17.434-5.68-56.782-16.854-59.347-16.854-1.04 0 19.977 20.69 42.976 42.306l7.333 6.892-6.616 6.735c-3.64 3.704-6.987 6.734-7.44 6.734-.452 0-16.675-14.81-36.05-32.91m1074.99 7.534c-10.515-10.224-18.915-19.16-18.667-19.858.558-1.573 65.12-73.433 65.976-73.433 1.529 0 44.46 41.76 44.338 43.129-.075.846-3.044 4.144-6.598 7.329l-6.463 5.79-4.147-4.723c-2.281-2.598-8.378-8.474-13.549-13.058l-9.4-8.335-6.75 7.076-6.749 7.075 12.563 11.756 12.562 11.756-7.059 7.103-7.06 7.102-3.607-4.117c-1.984-2.265-7.428-7.665-12.099-12l-8.492-7.883-7.855 8.653-7.854 8.653 12.013 11.776c6.607 6.477 12.013 12.286 12.013 12.91 0 1.165-12.135 12.032-13.333 11.94-.367-.029-9.27-8.417-19.784-18.641m78.116-12.912c-2.75-2.837-5-5.524-5-5.972 0-1.02 28.846-18.407 30.538-18.407 2.092 0 14.568 15.04 13.907 16.765-.687 1.791-24.137 11.142-30.445 12.14-3.312.523-4.86-.255-9-4.526M1385.23 355.21c-1.9-2.29-37.542-30.505-40.928-32.4-2.415-1.351-5.566 3.403 30.14-45.477 14.195-19.433 26.502-35.486 27.35-35.672 2.263-.498 17.54 11.382 17.54 13.64 0 1.06-10.65 15.699-23.666 32.529S1372 318.709 1372 319.05s6.6 5.867 14.667 12.283 14.666 11.93 14.666 12.252c0 1.441-11.49 13.747-12.836 13.748-.827 0-2.297-.955-3.266-2.123m-937.167-56.532c-16.35-21.474-24.9-31.673-25.902-30.9-.822.635-5.476 4.244-10.34 8.021-4.865 3.777-9.421 6.868-10.125 6.868-2.115 0-12.787-13.457-11.529-14.537 11.607-9.964 62.489-46.797 64.646-46.797 1.092 0 10.52 13.211 10.52 14.74 0 .428-5.102 4.278-11.336 8.557l-11.336 7.779 3.126 4.129c11.058 14.604 43.536 60.594 43.495 61.589-.041.972-12.935 10.826-16.015 12.24-.44.2-11.78-14.06-25.204-31.689m833.27-16.658c-4.034-2.444-7.334-4.965-7.334-5.603 0-2.053 47.958-85.668 49.16-85.71 2.729-.095 33.954 19.559 39.974 25.16 11.566 10.763 14.231 21.616 8.39 34.16-10.069 21.62-30.934 26.351-54.236 12.298l-7.38-4.45-8.62 14.376c-5.015 8.362-9.458 14.342-10.621 14.294-1.1-.045-5.3-2.082-9.334-4.525m62.727-34.396c7.724-6.086 8.661-14.526 2.272-20.456-6-5.569-11.763-8.965-12.936-7.625-1.882 2.15-13.527 22.105-13.13 22.501.22.22 3.1 1.942 6.4 3.828 6.41 3.664 13.999 4.428 17.394 1.752m-794.728 16.807c-9.3-3.38-23.69-18.549-30.133-31.764-4.932-10.118-5.2-11.319-5.196-23.334.003-10.41.515-13.622 2.873-18.032 4.345-8.123 15.323-17.558 26.816-23.046 9.646-4.606 11.12-4.921 22.974-4.918 10.639.003 13.582.492 18.388 3.055 8.453 4.508 15.612 12.35 20.95 22.951 16.584 32.932 9.12 59.334-20.672 73.121-9.412 4.356-26.809 5.306-36 1.967m29.22-20.373c5.903-3.011 11.742-9.445 12.953-14.272 3.858-15.372-12.028-44.012-25.852-46.605-10.177-1.91-23.85 6.004-27.673 16.017-2.708 7.09-1.586 13.739 4.269 25.299 9.83 19.413 22.846 26.426 36.302 19.561m642.638 7.523c-32.346-11.713-41.6-38.697-25.289-73.745 7.898-16.971 19.649-25.865 35.518-26.884 11.468-.736 18.902.885 30.912 6.741 22.263 10.856 31.338 30.251 24.563 52.5-5.294 17.386-17.473 33.557-30.228 40.138-9.774 5.042-23.653 5.531-35.476 1.25m22.712-19.532c2.822-1.44 7.385-5.688 10.14-9.44 10.92-14.876 14.266-31.057 8.289-40.078-3.572-5.392-15.55-11.864-21.957-11.864-10.934 0-20.583 9.643-26.542 26.524-6.185 17.52-2.72 28.7 10.834 34.956 6.906 3.187 12.857 3.157 19.236-.098m-615.81-40.382c-9.092-22.917-17.336-43.607-18.32-45.979-1.783-4.292-1.769-4.32 3.218-6.426 2.755-1.164 15.209-5.628 27.676-9.922 12.466-4.293 23.566-8.156 24.666-8.584 1.513-.589 2.57 1.16 4.334 7.175 1.283 4.374 2.333 8.53 2.333 9.234s-7.65 3.812-17 6.907c-9.35 3.094-17.225 5.818-17.5 6.054-.701.602 6.954 21.874 7.873 21.874.414 0 7.804-2.37 16.424-5.265 10.892-3.66 15.82-4.778 16.157-3.667.267.88 1.436 4.556 2.599 8.17 1.162 3.613 2.114 7.014 2.114 7.556s-6.75 3.217-15 5.944c-8.25 2.728-15.24 5.166-15.531 5.42-.292.252 2.352 8.296 5.876 17.875 3.809 10.353 5.916 17.894 5.197 18.596-1.51 1.475-14.73 6.704-16.947 6.704-.91 0-9-18.554-18.17-41.666m516.574 28.842c-7.334-2.543-17.834-5.858-23.334-7.368s-10.451-3.165-11.003-3.68c-.93-.866 24.249-93.818 25.847-95.416 1.586-1.586 59.186 16.677 59.115 18.743-.083 2.434-5.136 16.545-5.924 16.545-.447 0-8.664-2.633-18.261-5.852l-17.45-5.853-2.828 9.409c-1.556 5.174-2.678 9.526-2.495 9.67s7.233 2.526 15.666 5.293 15.545 5.21 15.804 5.43c.455.387-5.064 17.903-5.642 17.903-.158 0-7.336-2.368-15.951-5.262l-15.664-5.263-1.223 3.215c-3.16 8.313-5.48 18.345-4.457 19.278.623.568 7.883 3.258 16.133 5.977 8.25 2.718 15 5.281 15 5.695s-1.28 4.265-2.845 8.557c-1.915 5.252-3.55 7.77-5 7.702-1.185-.055-8.155-2.181-15.488-4.723M754 160.654c-4.4-21.015-8.347-38.778-8.77-39.473-.464-.758-5.415-.181-12.386 1.444-6.388 1.49-12.417 2.708-13.398 2.708-1.969 0-6.607-16.095-5.047-17.513 1.32-1.2 34.572-8.338 58.142-12.48 15.197-2.67 20.11-3.112 20.872-1.878 1.115 1.805 3.08 15.824 2.323 16.58-.266.266-6.492 1.52-13.834 2.787l-13.35 2.303 7.068 38.767c3.888 21.322 6.816 39.429 6.508 40.237s-3.162 1.835-6.344 2.28c-3.181.447-7.584 1.18-9.784 1.63l-4 .817zm284.956 33.357c-4.607-.91-8.774-2.05-9.258-2.535-.744-.744 13.865-96.808 14.876-97.826.968-.974 42.56 7.767 47.59 10.002 7.419 3.296 14.005 8.85 16.72 14.1 2.73 5.282 2.964 15.802.536 24.174-2.472 8.524-11.922 18.549-19.42 20.6-6.63 1.814-19.45 1.843-27.176.062-3.213-.741-6.066-1.124-6.34-.85-.273.273-1.875 7.904-3.56 16.958-1.684 9.054-3.631 16.575-4.326 16.715-.696.14-5.034-.49-9.642-1.4m43.13-51.945c4.573-2.996 7.008-11.98 4.485-16.55-2.243-4.062-8.886-7.576-16.65-8.807l-5.412-.857-2.297 12.965c-1.263 7.13-1.828 13.418-1.255 13.971 3.035 2.93 16.244 2.48 21.129-.722m-260.846 47.04c-1.28-6.021-12.47-98.758-11.955-99.076.407-.252 5.654-.886 11.66-1.41 12.54-1.094 11.564-2.148 13.002 14.047.423 4.766 1.136 11.888 1.585 15.825l.815 7.158 12.16-.861c6.688-.474 15.368-1.222 19.29-1.662l7.13-.8-.958-19.164L873.01 84h23.894l.88 36.217c.485 19.919.882 42.419.882 50V184h-20.931l-.934-20.956c-.515-11.525-1.077-21.097-1.25-21.27-.471-.47-36.132 2.475-36.754 3.036-.606.547 2.412 36.003 3.353 39.392.494 1.776-.75 2.37-6.436 3.07-3.877.478-8.698 1.185-10.715 1.571s-3.709.505-3.76.263m120.093-5.172c-10.633-.513-19.483-1.008-19.666-1.1-.6-.301-.35-29.73.547-64.618l.88-34.216 16.786.045c14.905.04 43.883 1.923 44.847 2.915.2.205.032 4.467-.372 9.47-.68 8.411-.947 9.047-3.545 8.432-1.546-.365-10.16-1.086-19.143-1.601l-16.334-.937v20.046l16.334 1.148L978 124.667V142l-17-.445-17-.445v23.926l17.469.972 17.468.971-.802 4.01c-.44 2.206-.802 6.336-.802 9.178v5.166L969 185.1c-4.583-.13-17.033-.654-27.667-1.166"/></svg>